<?xml version="1.0" standalone="no"?><!DOCTYPE svg PUBLIC "-//W3C//DTD SVG 1.1//EN" "http://www.w3.org/Graphics/SVG/1.1/DTD/svg11.dtd">
<svg class="icon" width="200px" height="200.00px" viewBox="0 0 1024 1024" version="1.1" xmlns="http://www.w3.org/2000/svg">
    <path
        d="M977.008821 824.079059 841.980205 824.079059 786.872983 824.218805C786.9543 797.932725 787.082059 782.80704 787.082059 782.80704 783.562511 737.228198 733.454035 686.317929 713.049992 670.921788 715.483799 661.061271 736.896 645.213967 736.896 645.213967L736.663672 616.826278C736.663672 616.826278 699.308634 584.814231 683.360738 526.354071 673.580634 521.046136 664.056049 528.735172 662.162733 475.199849 661.326426 451.435219 676.693534 452.120094 676.983928 452.178522 676.914236 451.05152 676.798103 445.789967 676.798103 409.492179 676.798103 385.8432 679.643859 374.239473 692.31622 366.689581 692.269719 366.398645 684.440998 319.263925 782.927691 317.486381 902.798276 317.486381 887.187215 416.159021 887.187215 409.480132 887.187215 445.778522 887.082647 451.040075 887.012954 452.166475 887.291723 452.108649 903.135112 451.423172 902.298805 475.188405 900.405489 528.723727 892.286374 521.034089 882.50621 526.342626 866.558313 584.802786 826.85699 616.814833 826.85699 616.814833L826.624663 645.202522 931.592734 693.046212C931.569544 693.046212 977.241148 709.760904 977.020446 758.429214L977.008821 824.079059ZM20.31104 944.689393 19.796811 809.613553C19.415883 722.039266 101.581101 692.003539 101.581101 692.003539L265.397368 615.970936 264.959337 554.851991C264.959337 554.851991 213.763192 513.998005 185.079627 408.824772 167.499957 399.282296 145.425468 396.368715 142.035245 300.051878 140.530568 257.312527 167.119089 261.902456 167.633318 261.997628 167.499957 259.978541 167.309553 247.141798 167.309553 181.870231 167.309553 139.301948 173.366212 118.427407 196.145453 104.828687 196.145453 104.71424 196.069256 104.523896 196.069256 104.314278 196.069256 104.314278 187.04137 19.539727 364.228066 16.340028L364.228066 16.263529C364.513762 16.282805 364.72326 16.301478 364.989922 16.301478 365.54228 16.301478 365.751778 16.340028 365.751778 16.340028 588.306492 16.340028 561.146639 193.869101 561.146639 181.870231 561.146639 247.141798 560.93708 259.959868 560.822814 261.997628 561.337103 261.902456 587.90653 257.312527 586.420887 300.051878 583.011629 396.368715 560.956175 399.282296 543.376504 408.824772 514.673905 513.998005 462.715904 554.851991 462.715904 554.851991L462.296907 615.970936 626.875031 692.003539C626.875031 692.003539 728.753092 719.829835 728.353129 828.640678L728.353129 944.689393 20.31104 944.689393 20.31104 944.689393Z"/>
</svg>
