<?xml version="1.0" standalone="no"?><!DOCTYPE svg PUBLIC "-//W3C//DTD SVG 1.1//EN" "http://www.w3.org/Graphics/SVG/1.1/DTD/svg11.dtd">
<svg class="icon" width="200px" height="200.00px" viewBox="0 0 1024 1024" version="1.1" xmlns="http://www.w3.org/2000/svg">
    <path
          d="M512 375.47008c-56.53504 0-102.4 61.1328-102.4 136.52992 0 75.32544 45.86496 136.52992 102.4 136.52992S614.4 587.32544 614.4 512c0-75.39712-45.86496-136.52992-102.4-136.52992z m0 204.8c-18.87232 0-34.12992-30.59712-34.12992-68.27008 0-37.7344 15.2576-68.27008 34.12992-68.27008 18.83136 0 34.12992 30.53568 34.12992 68.27008 0 37.67296-15.29856 68.27008-34.12992 68.27008zM102.4 273.07008v477.85984h819.2V273.07008H102.4z m68.27008 68.25984h68.25984A68.28032 68.28032 0 0 1 170.67008 409.6v-68.27008z m0 341.34016V614.4a68.23936 68.23936 0 0 1 68.25984 68.27008h-68.25984z m682.65984 0h-68.25984A68.23936 68.23936 0 0 1 853.32992 614.4v68.27008z m0-136.54016C777.9328 546.12992 716.8 607.27296 716.8 682.67008H307.2c0-75.39712-61.1328-136.54016-136.52992-136.54016v-68.25984C246.0672 477.87008 307.2 416.72704 307.2 341.32992h409.6c0 75.39712 61.1328 136.54016 136.52992 136.54016v68.25984z m0-136.52992a68.28032 68.28032 0 0 1-68.25984-68.27008h68.25984V409.6z"/>
</svg>
