<svg xmlns="http://www.w3.org/2000/svg" viewBox="0 0 254.3 330.26">
    <defs>
        <style>.cls-1{fill:#002654;}.cls-2{fill:#2569ba;stroke:#ccfffe;stroke-miterlimit:10;}</style>
    </defs>
    <title></title>
    <g id="图层_2" data-name="图层 2">
        <g id="图层_1-2" data-name="图层 1">
            <polygon class="cls-1"
                     points="89.73 36.7 80.84 27.81 80.84 18.91 85.28 23.36 89.73 14.46 103.08 27.81 111.97 27.81 125.32 41.15 120.87 45.6 143.11 54.49 147.56 50.05 160.9 63.39 160.9 72.29 178.69 67.84 178.69 85.63 169.79 98.97 174.24 107.87 183.14 103.42 183.14 125.66 192.03 134.56 209.82 134.56 218.72 116.76 236.51 139 227.62 147.9 218.72 139 200.93 139 205.38 161.24 192.03 179.03 218.72 201.27 209.82 223.51 240.96 219.06 254.3 232.41 254.3 241.3 236.51 259.09 236.51 276.88 218.72 272.44 218.72 294.68 209.82 312.47 183.14 330.26 174.24 316.92 156.45 321.36 134.21 299.12 111.97 321.36 103.08 312.47 116.42 299.12 107.52 290.23 98.63 290.23 98.63 299.12 85.28 308.02 58.6 254.65 71.94 236.85 54.15 223.51 49.7 227.96 40.81 214.62 45.26 192.38 67.49 187.93 67.49 143.45 54.15 152.35 45.26 147.9 31.91 134.56 31.91 125.66 14.12 116.76 14.12 107.87 36.36 107.87 36.36 90.08 54.15 81.18 54.15 50.05 63.05 50.05 80.84 72.29 94.18 67.84 103.08 58.94 94.18 41.15 89.73 36.7"/>
            <path name="anhui" class="cls-2"
                  d="M76.11,23.08l-8.89-8.89V5.29l4.44,4.45L76.11.84,89.46,14.19h8.89L111.7,27.53,107.25,32l22.24,8.89,4.44-4.44,13.35,13.34v8.9l17.79-4.45V72l-8.9,13.34,4.45,8.9,8.9-4.45V112l8.89,8.89H196.2l8.9-17.79,17.79,22.24-8.9,8.9-8.89-8.9H187.31l4.45,22.24-13.35,17.79,26.69,22.24-8.9,22.24,31.14-4.45,13.34,13.35v8.89l-17.79,17.79v17.79l-17.79-4.44v22.24l-8.9,17.79-26.68,17.79-8.9-13.35-17.79,4.45L120.59,285.5,98.35,307.74l-8.89-8.89L102.8,285.5l-8.9-8.89H85v8.89l-13.35,8.9L45,241l13.34-17.8L40.53,209.89l-4.45,4.45L27.19,201l4.44-22.24,22.24-4.45V129.83l-13.34,8.9-8.9-4.45L18.29,120.93V112L.5,103.14V94.25H22.74V76.46l17.79-8.9V36.43h8.9L67.22,58.67l13.34-4.45,8.9-8.9-8.9-17.79Z"/>
        </g>
    </g>
</svg>
