<svg xmlns="http://www.w3.org/2000/svg" viewBox="0 0 249.85 281.1">
    <defs>
        <style>.cls-1{fill:#002654;}.cls-2{fill:#2569ba;stroke:#ccfffe;stroke-miterlimit:10;}</style>
    </defs>
    <title></title>
    <g id="图层_2" data-name="图层 2">
        <g id="图层_1-2" data-name="图层 1">
            <polygon class="cls-1"
                     points="174.24 205.49 165.35 205.49 165.35 214.38 152 227.72 129.76 223.28 129.76 245.52 94.18 281.1 80.84 281.1 71.94 267.75 71.94 245.52 58.6 227.72 63.05 218.83 49.7 223.28 40.81 209.93 36.36 214.38 14.12 205.49 14.12 192.14 27.46 169.9 23.02 165.46 31.91 156.56 27.46 152.11 40.81 147.66 40.81 134.32 54.15 120.98 49.7 98.74 80.84 76.5 80.84 63.16 71.94 54.26 85.28 49.81 89.73 36.47 103.08 32.02 103.08 40.92 111.97 40.92 120.87 32.02 143.11 27.57 143.11 14.23 165.35 18.68 160.9 27.57 169.79 63.16 187.59 63.16 205.38 49.81 205.38 58.71 218.72 72.05 236.51 63.16 249.85 80.95 236.51 85.39 236.51 94.29 227.62 94.29 227.62 112.08 218.72 116.53 227.62 98.74 205.38 112.08 214.27 112.08 218.72 125.42 205.38 138.77 205.38 161.01 196.48 165.46 205.38 174.35 214.27 165.46 218.72 169.9 205.38 183.25 205.38 174.35 187.59 174.35 183.14 178.8 192.03 187.69 178.69 187.69 178.69 201.04 178.69 187.69 169.79 187.69 174.24 201.04 174.24 205.49"/>
            <path name="fujian" class="cls-2"
                  d="M160.62,191.87h-8.89v8.89L138.38,214.1l-22.24-4.44V231.9L80.56,267.48H67.22l-8.9-13.35V231.9L45,214.1l4.45-8.89-13.35,4.45-8.89-13.35-4.45,4.45L.5,191.87V178.52l13.34-22.24L9.4,151.84l8.89-8.9-4.45-4.45L27.19,134V120.7l13.34-13.34L36.08,85.12,67.22,62.88V49.54l-8.9-8.9,13.34-4.45,4.45-13.34L89.46,18.4v8.9h8.89l8.9-8.9L129.49,14V.61l22.24,4.45L147.28,14l8.89,35.59H174l17.8-13.35v8.9L205.1,58.43l17.79-8.89,13.34,17.79-13.34,4.44v8.9H214V98.46l-8.89,4.45L214,85.12,191.76,98.46h8.89l4.45,13.35-13.34,13.34v22.24l-8.9,4.45,8.9,8.89,8.89-8.89,4.45,4.44-13.34,13.35v-8.9H174l-4.44,4.45,8.89,8.89H165.07v0h-8.9l4.45,13.35Z"/>
        </g>
    </g>
</svg>
