<svg xmlns="http://www.w3.org/2000/svg" viewBox="0 0 609.9 991.15">
    <defs>
        <style>.cls-1{fill:none;}
            .cls-10,.cls-2{fill:#fff;}.cls-2{opacity:0;}.cls-3{fill:#002654;}.cls-4{fill:#2569ba;stroke:#ccfffe;stroke-miterlimit:10;}.cls-5{fill:url(#SVGID_1_);}.cls-6{fill:url(#SVGID_2_);}.cls-7{fill:url(#SVGID_3_);}.cls-8{fill:url(#SVGID_6_);}.cls-9{fill:url(#SVGID_9_);}.cls-10{isolation:isolate;font-size:14.53px;font-family:PingFangSC-Regular-GBpc-EUC-H, PingFang SC;}</style>
        <pattern id="SVGID_1_" data-name="SVGID 1 " width="481.3" height="886" patternTransform="translate(740.4 18995.3)" patternUnits="userSpaceOnUse" viewBox="0 0 481.3 886">
            <rect class="cls-1" width="481.3" height="886"/>
        </pattern>
        <pattern id="SVGID_2_" data-name="SVGID 2 " width="481.3" height="886" patternTransform="translate(753.7 18990.8)" patternUnits="userSpaceOnUse" viewBox="0 0 481.3 886">
            <rect class="cls-1" width="481.3" height="886"/>
        </pattern>
        <pattern id="SVGID_3_" data-name="SVGID 3 " width="481.3" height="886" patternTransform="translate(758.2 18981.9)" patternUnits="userSpaceOnUse" viewBox="0 0 481.3 886">
            <rect class="cls-1" width="481.3" height="886"/>
        </pattern>
        <pattern id="SVGID_6_" data-name="SVGID 6 " width="481.3" height="886" patternTransform="translate(767.1 18928.6)" patternUnits="userSpaceOnUse" viewBox="0 0 481.3 886">
            <rect class="cls-1" width="481.3" height="886"/>
        </pattern>
        <pattern id="SVGID_9_" data-name="SVGID 9 " width="481.3" height="886" patternTransform="translate(758.2 18959.7)" patternUnits="userSpaceOnUse" viewBox="0 0 481.3 886">
            <rect class="cls-1" width="481.3" height="886"/>
        </pattern>
    </defs>
    <title></title>
    <g id="图层_2" data-name="图层 2">
        <g id="图层_1-2" data-name="图层 1">
            <rect class="cls-2" width="609.9" height="991.15"/>
            <g id="图层_1-2-2" data-name="图层 1-2">
                <polygon class="cls-3" points="451.85 511.13 447.35 506.63 456.25 506.63 456.25 497.73 469.65 484.43 496.35 502.23 505.25 524.43 487.45 524.43 474.05 533.33 460.75 528.93 451.85 515.53 451.85 511.13"/>
                <polygon class="cls-3" points="505.25 475.53 500.75 488.83 460.75 471.13 469.65 462.23 491.85 475.53 505.25 475.53"/>
                <polygon class="cls-3" points="496.35 497.73 482.95 488.83 496.35 493.33 496.35 497.73"/>
                <path class="cls-3" d="M496.35,493.33l13.3,4.5Z"/>
                <path class="cls-3" d="M500.75,502.23l4.5,4.4Z"/>
                <polygon class="cls-3"
                         points="367.35 266.53 362.85 284.23 380.65 288.73 371.75 288.73 420.75 315.43 438.45 368.73 447.35 377.63 451.85 413.23 478.55 431.03 478.55 439.93 505.25 471.13 491.85 475.53 469.65 462.23 460.75 471.13 474.05 480.03 456.25 497.73 460.75 506.63 447.35 506.63 451.85 511.13 438.45 515.53 438.45 524.43 429.55 528.93 398.45 502.23 340.65 502.23 349.55 484.43 345.05 475.53 336.15 475.53 340.65 471.13 327.25 466.63 322.85 448.83 336.15 444.43 336.15 417.73 362.85 426.63 362.85 404.33 349.55 395.43 340.65 413.23 322.85 413.23 313.95 404.33 313.95 386.53 300.65 382.13 309.55 351.03 291.75 351.03 291.75 342.13 278.35 328.73 273.95 333.23 251.65 324.33 256.15 319.83 220.55 293.13 220.55 279.83 247.25 275.43 265.05 306.53 273.95 297.63 273.95 306.53 282.85 306.53 296.15 293.13 305.05 293.13 313.95 302.03 309.55 306.53 322.85 310.93 322.85 297.63 340.65 288.73 345.05 270.93 367.35 266.53"/>
                <polygon class="cls-3"
                         points="327.25 671.23 322.85 640.13 305.05 626.73 305.05 617.83 340.65 586.73 349.55 573.43 349.55 555.63 371.75 551.13 367.35 537.83 385.15 520.03 389.55 502.23 398.45 502.23 411.85 520.03 425.15 515.53 420.75 520.03 429.55 524.43 438.45 524.43 438.45 515.53 451.85 511.13 456.25 524.43 469.65 528.93 460.75 537.83 465.15 551.13 491.85 573.43 514.05 577.83 496.35 591.13 505.25 600.03 505.25 626.73 487.45 626.73 496.35 640.13 487.45 640.13 491.85 644.53 482.95 653.43 491.85 666.83 482.95 675.63 478.55 671.23 465.15 689.03 460.75 680.13 456.25 684.63 456.25 693.43 465.15 693.43 451.85 693.43 438.45 706.83 434.05 737.93 416.25 720.13 398.45 729.03 385.15 715.73 385.15 706.83 371.75 720.13 349.55 720.13 349.55 702.33 340.65 689.03 345.05 680.13 336.15 671.23 327.25 675.63 327.25 671.23"/>
                <polygon class="cls-3" points="514.05 573.43 500.75 564.53 505.25 560.03 518.55 573.43 514.05 573.43"/>
                <polygon class="cls-3" points="514.05 555.63 518.55 560.03 509.65 555.63 514.05 555.63"/>
                <polygon class="cls-3" points="500.75 528.93 505.25 524.43 505.25 533.33 514.05 537.83 505.25 533.33 500.75 528.93"/>
                <polygon class="cls-3"
                         points="220.55 315.43 211.65 306.53 211.65 297.63 216.05 302.03 220.55 293.13 233.85 306.53 242.75 306.53 256.15 319.83 251.65 324.33 273.95 333.23 278.35 328.73 291.75 342.13 291.75 351.03 309.55 346.53 309.55 364.33 300.65 377.63 305.05 386.53 313.95 382.13 313.95 404.33 322.85 413.23 340.65 413.23 349.55 395.43 367.35 417.73 358.45 426.63 349.55 417.73 331.75 417.73 336.15 439.93 322.85 457.73 349.55 480.03 340.65 502.23 371.75 497.73 385.15 511.13 385.15 520.03 367.35 537.83 367.35 555.63 349.55 551.13 349.55 573.43 340.65 591.13 313.95 608.93 305.05 595.63 287.25 600.03 265.05 577.83 242.75 600.03 233.85 591.13 247.25 577.83 238.35 568.93 229.45 568.93 229.45 577.83 216.05 586.73 189.45 533.33 202.75 515.53 184.95 502.23 180.55 506.63 171.65 493.33 176.05 471.13 198.35 466.63 198.35 422.13 184.95 431.03 176.05 426.63 162.75 413.23 162.75 404.33 144.95 395.43 144.95 386.53 167.15 386.53 167.15 368.73 184.95 359.93 184.95 328.73 193.85 328.73 211.65 351.03 224.95 346.53 233.85 337.63 224.95 319.83 220.55 315.43"/>
                <polygon class="cls-3"
                         points="353.95 862.53 345.05 862.53 345.05 871.43 331.75 884.73 309.55 880.33 309.55 902.53 273.95 938.13 260.55 938.13 251.65 924.73 251.65 902.53 238.35 884.73 242.75 875.83 229.45 880.33 220.55 866.93 216.05 871.43 193.85 862.53 193.85 849.13 207.25 826.93 202.75 822.43 211.65 813.53 207.25 809.13 220.55 804.63 220.55 791.33 233.85 777.93 229.45 755.73 260.55 733.53 260.55 720.13 251.65 711.23 265.05 706.83 269.45 693.43 282.85 689.03 282.85 697.93 291.75 697.93 300.65 689.03 322.85 684.63 322.85 671.23 345.05 675.63 340.65 684.63 349.55 720.13 367.35 720.13 385.15 706.83 385.15 715.73 398.45 729.03 416.25 720.13 429.55 737.93 416.25 742.43 416.25 751.33 407.35 751.33 407.35 769.13 398.45 773.53 407.35 755.73 385.15 769.13 394.05 769.13 398.45 782.43 385.15 795.73 385.15 818.03 376.25 822.43 385.15 831.33 394.05 822.43 398.45 826.93 385.15 840.23 385.15 831.33 367.35 831.33 362.85 835.83 371.75 844.73 358.45 844.73 358.45 858.03 358.45 844.73 349.55 844.73 353.95 858.03 353.95 862.53"/>
                <polygon class="cls-3"
                         points="313.95 608.93 305.05 626.73 322.85 644.53 327.25 671.23 309.55 689.03 291.75 697.93 282.85 697.93 282.85 689.03 251.65 711.23 260.55 729.03 247.25 746.83 229.45 755.73 233.85 777.93 202.75 822.43 207.25 826.93 193.85 849.13 198.35 862.53 189.45 871.43 193.85 884.73 162.75 871.43 122.65 889.13 109.35 875.83 140.45 844.73 131.55 835.83 104.95 844.73 96.05 835.83 100.45 804.63 113.75 791.33 96.05 791.33 104.95 782.43 104.95 773.53 91.55 764.63 96.05 729.03 78.25 720.13 91.55 689.03 113.75 671.23 104.95 657.93 109.35 644.53 96.05 626.73 113.75 617.83 113.75 608.93 140.45 608.93 149.35 604.53 144.95 600.03 149.35 604.53 167.15 591.13 171.65 595.63 184.95 582.33 198.35 591.13 207.25 582.33 216.05 586.73 229.45 568.93 247.25 577.83 233.85 591.13 242.75 600.03 265.05 577.83 287.25 600.03 305.05 595.63 309.55 608.93 313.95 608.93"/>
                <polygon class="cls-3"
                         points="269.45 297.63 260.55 306.53 242.75 275.43 220.55 279.83 216.05 297.63 207.25 302.03 176.05 297.63 158.25 270.93 144.95 270.93 153.85 248.73 162.75 248.73 189.45 217.53 207.25 208.63 202.75 204.23 171.65 222.03 176.05 199.73 167.15 177.53 193.85 150.83 189.45 146.43 198.35 128.63 211.65 124.13 216.05 110.83 224.95 119.73 242.75 93.03 269.45 93.03 296.15 66.33 331.75 79.63 349.55 75.23 358.45 97.43 367.35 101.93 358.45 101.93 349.55 115.23 353.95 128.63 371.75 141.93 389.55 137.53 398.45 128.63 394.05 124.13 402.95 124.13 416.25 110.83 416.25 101.93 442.95 93.03 456.25 97.43 460.75 110.83 474.05 106.33 482.95 119.73 509.65 110.83 518.55 119.73 540.75 119.73 527.45 146.43 536.35 146.43 522.95 159.73 505.25 150.83 482.95 164.23 478.55 159.73 469.65 168.63 447.35 173.03 456.25 177.53 438.45 186.43 438.45 204.23 425.15 208.63 416.25 195.33 411.85 208.63 420.75 208.63 371.75 266.53 349.55 270.93 336.15 293.13 331.75 288.73 322.85 297.63 327.25 302.03 318.35 310.93 305.05 297.63 309.55 293.13 291.75 293.13 291.75 302.03 273.95 306.53 269.45 297.63"/>
                <path class="cls-4" d="M438.25,497.53l-4.5-4.5h8.9v-8.9l13.3-13.3,26.7,17.8,8.9,22.2h-17.8l-13.3,8.9-13.3-4.5-8.9-13.3v-4.4Z"/>
                <path class="cls-4" d="M491.55,461.93l-4.4,13.3-40-17.8,8.9-8.9,22.2,13.3Z"/>
                <path class="cls-4" d="M482.65,484.13l-13.3-8.9,13.3,4.5Z"/>
                <path class="cls-4" d="M482.65,479.73l13.3,4.4Z"/>
                <path class="cls-4" d="M487.15,488.63l4.4,4.4Z"/>
                <path class="cls-4"
                      d="M353.75,252.83l-4.5,17.8,17.8,4.5h-8.9l48.9,26.7,17.8,53.3,8.9,8.9,4.5,35.6,26.7,17.8v8.9l26.7,31.1-13.3,4.5-22.2-13.3-8.9,8.9,13.3,8.9-17.9,17.7,4.5,8.9h-13.4l4.5,4.5L425,502v8.9l-8.9,4.4L385,488.63h-57.8l8.9-17.8-4.5-8.9h-8.9l4.5-4.5-13.4-4.5-4.4-17.8,13.3-4.5v-26.5l26.7,8.9v-22.3l-13.3-8.9-8.9,17.8h-17.8l-8.9-8.9v-17.8l-13.4-4.4,8.9-31.1h-17.8v-8.9l-13.4-13.4-4.4,4.5-22.2-8.9,4.4-4.4L207,279.53v-13.3l26.7-4.4,17.8,31.1,8.9-8.9v8.9h8.9l13.4-13.3h8.9l8.9,8.9-4.4,4.4,13.3,4.4V284l17.8-8.9,4.4-17.8Z"/>
                <path class="cls-4" d="M313.65,657.63l-4.4-31.1-17.8-13.4v-8.9l35.6-31.1,8.9-13.4v-17.8l22.2-4.5-4.5-13.3,17.8-17.8,4.4-17.8h8.9l13.3,17.8,13.3-4.5-4.4,4.5,8.9,4.5h8.9v-8.9l13.3-4.5,4.5,13.4,13.3,4.4-8.9,8.9,4.4,13.3,26.7,22.2,22.2,4.5-17.8,13.3,8.9,8.9v26.8h-17.8l8.9,13.3h-8.9l4.5,4.5-8.9,8.9,8.9,13.3-8.9,8.9-4.4-4.4-13.4,17.8-4.4-8.9-4.5,4.5v8.9H438l-13.3,13.3-4.5,31.1-17.8-17.8-17.8,8.9-13.1-13.3v-8.9l-13.3,13.3H336v-17.8l-8.9-13.3,4.4-8.9-8.9-8.9-8.9,4.5Z"/>
                <path class="cls-4" d="M500.45,559.73l-13.3-8.9,4.4-4.5,13.4,13.3h-4.5Z"/>
                <path class="cls-4" d="M500.45,541.93l4.5,4.5-8.9-4.5Z"/>
                <path class="cls-4" d="M487.15,515.23l4.4-4.4v8.9l8.9,4.5-8.9-4.5Z"/>
                <path class="cls-4"
                      d="M207,301.83l-8.9-8.9V284l4.4,4.4,4.4-8.9,13.3,13.3h8.9l13.4,13.4-4.4,4.4,22.2,8.9,4.4-4.5,13.3,13.4v8.9l17.8-4.5v17.8l-8.9,13.3,4.4,8.9,8.9-4.4v22.2l8.9,8.9H327l9-17.8,17.8,22.3-8.9,8.9-8.9-8.8h-17.8l4.4,22.2-13.3,17.8,26.7,22.2-8.9,22.2,31.1-4.5,13.3,13.3v8.9l-17.7,17.9v17.8l-17.8-4.4v22.2l-8.9,17.8-26.7,17.8-8.9-13.3-17.8,4.5-22.2-22.2-22.2,22.2-8.9-8.9,13.3-13.3-8.9-8.9h-8.9v8.9l-13.4,8.9-26.7-53.4,13.3-17.8-17.8-13.3-4.4,4.4-8.9-13.4,4.4-22.2,22.2-4.5v-44.5l-13.3,8.9-8.9-4.5-13.3-13.3v-8.9l-17.8-8.9v-8.9h22.2v-17.8l17.8-8.9v-31.1h8.9l17.8,22.2,13.3-4.5,8.9-8.9-8.9-17.8Z"/>
                <path class="cls-4"
                      d="M340.35,848.83h-8.9v8.9l-13.3,13.4-22.2-4.5v22.2l-35.6,35.6H247l-8.9-13.4v-22.2l-13.3-17.7,4.4-8.9-13.3,4.5-8.9-13.4-4.4,4.4-22.2-8.9v-13.3l13.3-22.2-4.4-4.5,8.9-8.9-4.4-4.5,13.3-4.4v-13.3l13.3-13.3-4.5-22.2,31.1-22.3v-13.3l-8.9-8.9,13.3-4.4,4.4-13.3,13.3-4.5v8.9H278l8.9-8.9,22.2-4.4v-13.3l22.2,4.5-4.4,8.9,8.9,35.6h17.8l17.8-13.3v8.9l13.4,13.3,17.8-8.9,13.3,17.8-13.3,4.5V738h-8.9v17.8l-8.9,4.5,8.9-17.8-22.2,13.3h8.9l4.5,13.3-13.4,13v22.2l-8.9,4.5,8.9,8.9,8.9-8.9,4.5,4.5-13.4,13.4v-8.9h-17.8l-4.5,4.5,8.9,8.9H336l4.5,13.3Z"/>
                <path class="cls-4"
                      d="M300.35,595.33l-8.9,17.8,17.8,17.8,4.4,26.7-17.8,17.8-17.8,8.9h-8.9v-8.9l-31.1,22.2,8.9,17.8-13.4,17.8-17.8,8.9,4.4,22.2-31.1,44.5,4.4,4.5-13.3,22.2,4.4,13.3-8.9,8.9,4.5,13.4-31.1-13.4-40,17.8-13.4-13.3,31.2-31.1-8.9-9-26.7,9-8.9-8.9,4.4-31.1,13.4-13.3H82.35l8.9-8.9V760L78,751l4.5-35.6-17.8-8.9L78,675.43l22.2-17.8-8.9-13.3,4.4-13.3-13.3-17.9,17.8-8.9v-8.9h26.7l8.9-4.4-4.4-4.5,4.4,4.5,17.8-13.3,4.4,4.5,13.3-13.3,13.3,8.9,8.9-8.9,8.9,4.4,13.3-17.8,17.8,8.9-13.3,13.3,8.9,8.9,22.2-22.2,22.2,22.2,17.8-4.5,4.4,13.3Z"/>
                <path class="cls-4"
                      d="M255.85,284l-8.9,8.9-17.8-31.1-22.2,4.5-4.4,17.8-8.9,4.4-31.2-4.4-17.8-26.7h-13.3l8.9-22.2h8.9l26.7-31.1,17.8-8.9-4.4-4.4-31.1,17.8,4.4-22.3-8.9-22.2,26.7-26.7L176,133l8.9-17.8,13.3-4.5,4.4-13.3,8.9,9,17.8-26.7H256L282.65,53l35.6,13.3,17.7-4.7,8.9,22.2,8.9,4.4h-8.9l-8.9,13.4,4.5,13.3,17.8,13.3,17.8-4.4,8.9-8.9-4.5-4.5h8.9l13.3-13.3v-8.9l26.7-8.9,13.3,4.5,4.5,13.3,13.3-4.5,8.9,13.4,26.7-8.9,8.9,9h22.2l-13.4,26.6h8.9l-13.3,13.4-17.8-8.9-22.2,13.3-4.4-4.4-8.9,8.9-22.2,4.4,8.9,4.4-17.8,8.9v17.8l-13.4,4.4-8.9-13.3-4.5,13.3h8.9l-49,57.8-22.2,4.4-13.3,22.2-4.5-4.4-8.9,8.9,4.4,4.4-8.9,8.9-13.4-13.3,4.4-4.4h-17.8v8.9l-17.8,4.4Z"/>
                <path class="cls-5" d="M482.65,484.13l-13.3-8.9,13.3,4.5Z"/>
                <path class="cls-6" d="M482.65,479.73l13.3,4.4Z"/>
                <path class="cls-7" d="M487.15,488.63l4.4,4.4Z"/>
                <path class="cls-8" d="M500.45,541.93l4.5,4.5-8.9-4.5Z"/>
                <path class="cls-9" d="M487.15,515.23l4.4-4.4v8.9l8.9,4.5-8.9-4.5Z"/>
                <text class="cls-10" transform="translate(267.07 191.84) rotate(-0.03)">山东</text>
                <text class="cls-10" transform="translate(366.95 385.25) rotate(-0.03)">江苏</text>
                <text class="cls-10" transform="translate(244.37 456.98) rotate(-0.03)">安徽</text>
                <text class="cls-10" transform="translate(162.65 687.62) rotate(-0.03)">江西</text>
                <text class="cls-10" transform="translate(277.97 780.24) rotate(-0.03)">福建</text>
                <text class="cls-10" transform="translate(386.93 605.9) rotate(-0.03)">浙江</text>
                <text class="cls-10" transform="translate(438.68 493.2) rotate(-0.03)">上海</text>
            </g>
        </g>
    </g>
</svg>
