<svg xmlns="http://www.w3.org/2000/svg" viewBox="0 0 298.78 276.69">
    <defs>
        <style>.cls-1{fill:#002654;}.cls-2{fill:#2569ba;stroke:#ccfffe;stroke-miterlimit:10;}</style>
    </defs>
    <title>资源 9</title>
    <g id="图层_2" data-name="图层 2">
        <g id="图层_1-2" data-name="图层 1">
            <polygon class="cls-1"
                     points="160.9 14.27 156.45 32.06 174.24 36.51 165.35 36.51 214.27 63.19 232.06 116.56 240.96 125.46 245.41 161.04 272.09 178.83 272.09 187.73 298.78 218.87 285.44 223.31 263.2 209.97 254.3 218.87 267.64 227.76 249.85 245.55 254.3 254.45 240.96 254.45 245.41 258.89 232.06 263.34 232.06 272.24 223.17 276.69 192.03 250 134.21 250 143.11 232.21 138.66 223.31 129.76 223.31 134.21 218.87 120.87 214.42 116.42 196.63 129.76 192.18 129.76 165.49 156.45 174.39 156.45 152.15 143.11 143.25 134.21 161.04 116.42 161.04 107.52 152.15 107.52 134.36 94.18 129.91 103.08 98.77 85.28 98.77 85.28 89.88 71.94 76.53 67.49 80.98 45.26 72.09 49.7 67.64 14.12 40.95 14.12 27.61 40.81 23.16 58.6 54.3 67.49 45.4 67.49 54.3 76.39 54.3 89.73 40.95 98.63 40.95 107.52 49.85 103.08 54.3 116.42 58.74 116.42 45.4 134.21 36.51 138.66 18.71 160.9 14.27"/>
            <path class="cls-2"
                  d="M147.28.65l-4.45,17.79,17.79,4.44h-8.89l48.92,26.69,17.79,53.37,8.9,8.9,4.45,35.58,26.68,17.79v8.9l26.69,31.13-13.34,4.45-22.24-13.34-8.9,8.89,13.34,8.9-17.79,17.79,4.45,8.9H227.34l4.45,4.44-13.35,4.45v8.9l-8.89,4.45-31.14-26.69H120.59l8.9-17.79-4.45-8.9h-8.9l4.45-4.45-13.34-4.44L102.8,183l13.34-4.45V151.87l26.69,8.9V138.53l-13.34-8.9-8.9,17.79H102.8l-8.9-8.89V120.74l-13.34-4.45,8.9-31.14H71.66V76.26L58.32,62.91l-4.45,4.45L31.63,58.47,36.08,54,.5,27.33V14L27.19,9.54,45,40.68l8.89-8.9v8.9h8.9L76.11,27.33H85l8.89,8.9-4.44,4.45,13.34,4.44V31.78l17.79-8.9L125,5.09Z"/>
        </g>
    </g>
</svg>
