<svg xmlns="http://www.w3.org/2000/svg" viewBox="0 0 263.34 334.5">
    <defs>
        <style>.cls-1{fill:#002654;}.cls-2{fill:#2569ba;stroke:#ccfffe;stroke-miterlimit:10;}</style>
    </defs>
    <title>资源 15</title>
    <g id="图层_2" data-name="图层 2">
        <g id="图层_1-2" data-name="图层 1">
            <polygon class="cls-1"
                     points="250 54.28 241.1 72.08 258.89 89.87 263.34 116.55 245.55 134.34 227.76 143.24 218.87 143.24 218.87 134.34 187.73 156.58 196.63 174.38 183.28 192.17 165.49 201.06 169.94 223.3 138.8 267.78 143.25 272.23 129.91 294.47 134.36 307.81 125.46 316.7 129.91 330.05 98.77 316.7 58.74 334.5 45.4 321.15 76.53 290.02 67.64 281.12 40.95 290.02 32.06 281.12 36.51 249.99 49.85 236.65 32.06 236.65 40.95 227.75 40.95 218.85 27.61 209.96 32.06 174.38 14.27 165.48 27.61 134.34 49.85 116.55 40.95 103.21 45.4 89.87 32.06 72.08 49.85 63.18 49.85 54.28 76.53 54.28 85.43 49.84 80.98 45.39 85.43 49.84 103.22 36.49 107.67 40.94 121.01 27.6 134.36 36.49 143.25 27.6 152.15 32.05 165.49 14.25 183.28 23.15 169.94 36.49 178.84 45.39 201.07 23.15 223.31 45.39 241.1 40.94 245.55 54.28 250 54.28"/>
            <path class="cls-2"
                  d="M236.38,40.66l-8.9,17.8,17.79,17.79,4.45,26.68-17.79,17.79-17.79,8.9h-8.9v-8.9L174.11,143l8.9,17.79-13.35,17.8-17.79,8.89,4.45,22.24-31.14,44.48,4.45,4.45-13.34,22.24,4.45,13.34-8.9,8.89,4.45,13.35L85.15,303.08l-40,17.8L31.78,307.53,62.91,276.4,54,267.5l-26.69,8.9-8.89-8.9,4.44-31.13L36.23,223H18.44l8.89-8.89v-8.9L14,196.34l4.45-35.59L.65,151.86,14,120.72l22.24-17.79-8.9-13.34,4.45-13.34L18.44,58.46l17.79-8.9v-8.9H62.91l8.9-4.44-4.45-4.45,4.45,4.45L89.6,22.87l4.45,4.45L107.39,14l13.35,8.89L129.63,14l8.9,4.45L151.87.63l17.79,8.9L156.32,22.87l8.89,8.9L187.45,9.53l22.24,22.24,17.79-4.45,4.45,13.34Z"/>
        </g>
    </g>
</svg>
