<?xml version="1.0" standalone="no"?><!DOCTYPE svg PUBLIC "-//W3C//DTD SVG 1.1//EN"
    "http://www.w3.org/Graphics/SVG/1.1/DTD/svg11.dtd">
<svg class="icon" width="200px" height="200.00px" viewBox="0 0 1024 1024" version="1.1"
     xmlns="http://www.w3.org/2000/svg">
    <path
          d="M91.091436 761.791546 502.563406 761.791546l0 175.617068c0 12.011592 9.733187 21.744779 21.744779 21.744779l0 0c12.011592 0 21.744779-9.733187 21.744779-21.744779l0-175.617068 386.909164 0c12.791046 0 23.143799-10.372739 23.143799-23.143799l0 0c0-12.791046-10.372739-23.143799-23.143799-23.143799L91.091436 715.503947c-12.791046 0-23.143799 10.372739-23.143799 23.143799l0 0C67.947637 751.438793 78.320376 761.791546 91.091436 761.791546zM900.584791 234.460678c0-92.015589-74.507845-169.601279-166.523434-169.601279L289.992205 64.859398c-92.015589 0-166.523434 77.565704-166.523434 169.601279l0 360.807435 0 55.501149 777.116019 0L900.584791 234.460678zM857.355051 607.559508 166.698511 607.559508 166.698511 231.402818c0-61.237134 55.840911-120.235835 117.157989-120.235835l453.282702 0c61.237134 0 120.235835 61.976616 120.235835 123.293694L857.375037 607.559508zM376.824223 238.118117 282.477466 482.989907l39.805736 0 23.023883-63.136604 105.295893 0 23.023883 63.136604 40.112721 0L419.290497 238.118117 376.824223 238.118117zM356.563206 388.950135l40.82902-110.821625 1.330269 0 40.522035 110.821625L356.563206 388.950135zM626.812431 238.118117l-89.230339 0 0 244.87179 88.51404 0c39.396423 0 69.276307-10.949136 89.844309-32.949735 19.544719-21.284301 29.470571-51.061857 29.470571-89.537324 0-38.782452-9.618867-68.560008-28.8566-89.230339C696.088738 249.067253 666.311182 238.118117 626.812431 238.118117zM687.493155 428.755871c-14.4283 14.735285-37.349855 22.307585-68.253023 22.307585l-44.205856 0 0-181.121215 44.922154 0c30.903168 0 53.517738 7.162986 67.946038 22.0006 13.712002 14.4283 20.874988 37.04287 20.874988 68.560008C708.777456 391.406016 701.61447 414.020586 687.493155 428.755871z"/>
</svg>
