<?xml version="1.0" standalone="no"?><!DOCTYPE svg PUBLIC "-//W3C//DTD SVG 1.1//EN"
    "http://www.w3.org/Graphics/SVG/1.1/DTD/svg11.dtd">
<svg class="icon" width="200px" height="200.00px" viewBox="0 0 1024 1024" version="1.1"
     xmlns="http://www.w3.org/2000/svg">
    <path
          d="M512 1024a512 512 0 1 1 512-512 512.576 512.576 0 0 1-512 512z m0-960a448 448 0 1 0 448 448A448.512 448.512 0 0 0 512 64z m192 480h-160v160a32 32 0 0 1-64 0v-160h-160a32 32 0 0 1 0-64h160v-160a32 32 0 0 1 64 0v160h160a32 32 0 0 1 0 64z"/>
</svg>
