<?xml version="1.0" standalone="no"?><!DOCTYPE svg PUBLIC "-//W3C//DTD SVG 1.1//EN" "http://www.w3.org/Graphics/SVG/1.1/DTD/svg11.dtd">
<svg t="1659079484931" class="icon" viewBox="0 0 1024 1024" version="1.1" xmlns="http://www.w3.org/2000/svg" p-id="3431" xmlns:xlink="http://www.w3.org/1999/xlink" width="200" height="200">
    <defs>
        <style type="text/css">@font-face { font-family: feedback-iconfont; src: url("//at.alicdn.com/t/font_1031158_u69w8yhxdu.woff2?t=1630033759944") format("woff2"), url("//at.alicdn.com/t/font_1031158_u69w8yhxdu.woff?t=1630033759944")
            format("woff"), url("//at.alicdn.com/t/font_1031158_u69w8yhxdu.ttf?t=1630033759944") format("truetype"); }
        </style>
    </defs>
    <path d="M738.229236 552.738378H324.836297a37.008188 37.008188 0 1 1 0-74.016375h413.392939a37.008188 37.008188 0 0 1 0 74.016375z" fill="#00ADB5" p-id="3432"></path>
    <path d="M529.815197 752.498482a37.020203 37.020203 0 0 1-37.008188-37.008187V302.213507a37.008188 37.008188 0 1 1 74.016376 0v413.276788a37.020203 37.020203 0 0 1-37.008188 37.008187z" fill="#00ADB5" p-id="3433"></path>
    <path d="M149.749653 121.607677a30.946962 30.946962 0 0 0-12.800667 13.350717c-4.071969 7.934331-5.512511 15.709789-5.512511 41.23903v671.371515c0 25.529241 1.440542 33.304699 5.512511 41.23903a30.948297 30.948297 0 0 0 12.800667 13.340036c7.609909 4.242858 15.074295 5.740808 39.572861 5.740809h644.246863c24.498566 0 31.954941-1.501956 39.57286-5.740809a30.948297 30.948297 0 0 0 12.800668-13.350717c4.071969-7.934331 5.512511-15.709789 5.512511-41.23903V312.807301c0-16.039551-0.364475-20.93793-1.436537-25.78691a29.296814 29.296814 0 0 0-3.676788-9.253382c-2.528626-4.216156-5.592615-7.943677-16.480125-19.289116l-115.260746-120.120407c-10.88751-11.34811-14.464167-14.537596-18.506764-17.175697a26.89769 26.89769 0 0 0-8.883567-3.831656c-4.650055-1.11078-9.345502-1.49528-24.741549-1.49528H189.322514c-24.498566 0-31.954941 1.501956-39.572861 5.740808zM189.322514 38.71708h513.144156c20.510707 0 30.185971 0.782352 41.368532 3.471186a99.245226 99.245226 0 0 1 31.507692 13.597705c9.728668 6.341591 17.100934 12.918154 31.603818 28.036506l115.267421 120.123077c14.502884 15.115682 20.813768 22.796349 26.896355 32.934884a108.231593 108.231593 0 0 1 13.04632 32.830748c2.576688 11.653841 3.337679 21.736302 3.33768 43.110801v534.746952c0 37.176407-3.670112 56.983531-14.262571 77.622404a106.562754 106.562754 0 0 1-43.166874 44.991916c-19.805789 11.037038-38.806529 14.863353-74.484986 14.863354H189.322514c-35.674451 0-54.679197-3.82498-74.484986-14.863354a106.561419 106.561419 0 0 1-43.166874-44.991916C61.078196 904.552469 57.408083 884.748016 57.408083 847.570274V176.186743c0-37.176407 3.670112-56.983531 14.262571-77.622404a106.561419 106.561419 0 0 1 43.164204-44.985241C134.644652 42.54206 153.645392 38.71708 189.322514 38.71708z m596.025408 76.470237z"
          p-id="3434"></path>
</svg>
