<?xml version="1.0" standalone="no"?><!DOCTYPE svg PUBLIC "-//W3C//DTD SVG 1.1//EN" "http://www.w3.org/Graphics/SVG/1.1/DTD/svg11.dtd">
<svg t="1659079536016" class="icon" viewBox="0 0 1024 1024" version="1.1" xmlns="http://www.w3.org/2000/svg" p-id="4637" xmlns:xlink="http://www.w3.org/1999/xlink" width="200" height="200">
    <defs>
        <style type="text/css">@font-face { font-family: feedback-iconfont; src: url("//at.alicdn.com/t/font_1031158_u69w8yhxdu.woff2?t=1630033759944") format("woff2"), url("//at.alicdn.com/t/font_1031158_u69w8yhxdu.woff?t=1630033759944")
            format("woff"), url("//at.alicdn.com/t/font_1031158_u69w8yhxdu.ttf?t=1630033759944") format("truetype"); }
        </style>
    </defs>
    <path d="M511.852562 1023.97068l-1.259619 0.029201a41.794393 41.794393 0 0 1-29.52605-12.114375 42.239042 42.239042 0 0 1-12.123665-31.11617V555.059308H43.083212l-1.404295 0.026546a41.790411 41.790411 0 0 1-29.526051-12.115702 42.225769 42.225769 0 0 1-12.123665-31.11617c0-12.26967 4.065556-22.678449 12.089155-30.793632a41.810321 41.810321 0 0 1 29.560561-12.148885l1.552954 0.029201h425.710029V43.084633c0-12.417002 4.068211-22.829762 12.093138-30.935656A41.822266 41.822266 0 0 1 510.592943 0.000093l1.552955 0.029201h0.011946c12.264361 0 22.66783 4.068211 30.776378 12.090483 8.054128 8.140403 12.122338 18.547855 12.122338 30.966183V468.939339h425.858688c12.415674 0 22.829762 4.068211 30.934328 12.09181 8.054128 8.140403 12.122338 18.549182 12.122338 30.966183a41.440001 41.440001 0 0 1-41.65237 43.08454l-1.551628-0.029201H555.05656V980.910031a41.437346 41.437346 0 0 1-41.65237 43.083213z"
           p-id="4638"></path>
</svg>
