<?xml version="1.0" standalone="no"?><!DOCTYPE svg PUBLIC "-//W3C//DTD SVG 1.1//EN" "http://www.w3.org/Graphics/SVG/1.1/DTD/svg11.dtd">
<svg t="1659079551892" class="icon" viewBox="0 0 1024 1024" version="1.1" xmlns="http://www.w3.org/2000/svg" p-id="5087" xmlns:xlink="http://www.w3.org/1999/xlink" width="200" height="200">
    <defs>
        <style type="text/css">@font-face { font-family: feedback-iconfont; src: url("//at.alicdn.com/t/font_1031158_u69w8yhxdu.woff2?t=1630033759944") format("woff2"), url("//at.alicdn.com/t/font_1031158_u69w8yhxdu.woff?t=1630033759944")
            format("woff"), url("//at.alicdn.com/t/font_1031158_u69w8yhxdu.ttf?t=1630033759944") format("truetype"); }
        </style>
    </defs>
    <path d="M843.147181 56.557643H180.843473a124.711718 124.711718 0 0 0-124.713053 124.713053v661.458608a124.711718 124.711718 0 0 0 124.713053 124.713053h662.314389a124.711718 124.711718 0 0 0 124.713053-124.713053V181.260016a124.718394 124.718394 0 0 0-124.723734-124.702373z m65.781653 786.171661a65.856417 65.856417 0 0 1-65.781653 65.781653H180.843473a65.856417 65.856417 0 0 1-65.781653-65.781653V181.260016a65.856417 65.856417 0 0 1 65.781653-65.781654h662.314389a65.857752 65.857752 0 0 1 65.781653 65.781654v661.469288z"
           p-id="5088"></path>
    <path d="M180.843473 50.114587h662.303708a131.318988 131.318988 0 0 1 131.16679 131.144094v661.470623a131.304302 131.304302 0 0 1-131.156109 131.156109H180.843473a131.304302 131.304302 0 0 1-131.156109-131.156109V181.270696a131.304302 131.304302 0 0 1 131.156109-131.156109z m662.314389 910.884714a118.403505 118.403505 0 0 0 118.269997-118.269997V181.258681a118.42086 118.42086 0 0 0-118.280678-118.260652H180.843473a118.403505 118.403505 0 0 0-118.269997 118.269997v661.461278a118.403505 118.403505 0 0 0 118.269997 118.269997zM180.843473 109.035306h662.314389a72.306149 72.306149 0 0 1 72.227379 72.22738v661.467953a72.326175 72.326175 0 0 1-72.23539 72.227379H180.843473a72.306149 72.306149 0 0 1-72.227379-72.227379V181.258681a72.306149 72.306149 0 0 1 72.227379-72.223375z m721.652986 733.693998V181.258681a59.410691 59.410691 0 0 0-59.338597-59.338598H180.843473a59.410691 59.410691 0 0 0-59.338597 59.338598v661.470623a59.410691 59.410691 0 0 0 59.338597 59.338597h662.303708a59.410691 59.410691 0 0 0 59.338597-59.338597z"
           p-id="5089"></path>
    <path d="M714.19928 591.912052l-101.106315 101.106316V324.97381a89.8303 89.8303 0 0 0-89.831635-89.831635H288.966926a29.466368 29.466368 0 1 0 0 58.9314h234.291734a30.897565 30.897565 0 0 1 30.900234 30.900235v368.045893l-101.106315-101.106316a29.469038 29.469038 0 0 0-41.674263 41.667588l143.253194 143.253194a41.017408 41.017408 0 0 0 57.998185 0l143.242514-143.253194a29.465033 29.465033 0 1 0-41.672929-41.668923z"
           p-id="5090"></path>
    <path d="M583.621257 795.288866a47.165413 47.165413 0 0 0 33.557027-13.894092l143.253194-143.261204a35.913429 35.913429 0 1 0-50.786127-50.775447l-90.112 90.113335V324.975145a96.384167 96.384167 0 0 0-96.274691-96.274691h-234.291734a35.913429 35.913429 0 1 0 0 71.817512h234.291734a24.485215 24.485215 0 0 1 24.457178 24.457179v352.496313l-90.107994-90.117341a35.913429 35.913429 0 0 0-50.786128 50.786128l143.253194 143.253194a47.136042 47.136042 0 0 0 33.546347 13.895427z m151.425168-205.569002a23.021977 23.021977 0 0 1 16.270519 39.301841l-143.253194 143.253195a34.578357 34.578357 0 0 1-48.886321 0l-143.253194-143.253195a23.025982 23.025982 0 1 1 32.563734-32.563734l112.113981 112.120657V324.975145a37.382008 37.382008 0 0 0-37.34329-37.344626h-234.291734a23.023312 23.023312 0 1 1 0-46.046623h234.291734a83.483369 83.483369 0 0 1 83.388579 83.388579v383.606153l112.105971-112.105971a22.89114 22.89114 0 0 1 16.293215-6.752793z"
           p-id="5091"></path>
</svg>
