<?xml version="1.0" standalone="no"?><!DOCTYPE svg PUBLIC "-//W3C//DTD SVG 1.1//EN" "http://www.w3.org/Graphics/SVG/1.1/DTD/svg11.dtd"><svg t="1659079525679" class="icon" viewBox="0 0 1024 1024" version="1.1" xmlns="http://www.w3.org/2000/svg" p-id="4334" xmlns:xlink="http://www.w3.org/1999/xlink" width="200" height="200"><defs><style type="text/css">@font-face { font-family: feedback-iconfont; src: url("//at.alicdn.com/t/font_1031158_u69w8yhxdu.woff2?t=1630033759944") format("woff2"), url("//at.alicdn.com/t/font_1031158_u69w8yhxdu.woff?t=1630033759944") format("woff"), url("//at.alicdn.com/t/font_1031158_u69w8yhxdu.ttf?t=1630033759944") format("truetype"); }
</style></defs><path d="M844.686519 54.438884H179.301465a125.292475 125.292475 0 0 0-125.292474 125.29648v664.531942a125.292475 125.292475 0 0 0 125.292474 125.29648h665.39974a125.29114 125.29114 0 0 0 125.292474-125.292474V179.720678a125.29915 125.29915 0 0 0-125.30716-125.281794z m66.086049 789.828422a66.163484 66.163484 0 0 1-66.086049 66.08605H179.301465a66.163484 66.163484 0 0 1-66.086049-66.08605V179.720678a66.163484 66.163484 0 0 1 66.086049-66.08605h665.39974a66.163484 66.163484 0 0 1 66.086049 66.08605v664.546628z" fill="#00ADB5" p-id="4335"></path><path d="M179.302801 47.966456h665.378378a131.929116 131.929116 0 0 1 131.771577 131.752887v664.550634a131.91443 131.91443 0 0 1-131.771577 131.771577h-665.39974a131.91443 131.91443 0 0 1-131.771577-131.771577V179.732694a131.91443 131.91443 0 0 1 131.792939-131.766238z m665.394398 915.124903a118.954889 118.954889 0 0 0 118.821382-118.821382V179.720678a118.96824 118.96824 0 0 0-118.837402-118.808031H179.302801a118.954889 118.954889 0 0 0-118.821382 118.821382v664.535948a118.954889 118.954889 0 0 0 118.821382 118.821382z m-665.399739-855.926488h665.399739a72.642587 72.642587 0 0 1 72.559813 72.559812v664.545294a72.662613 72.662613 0 0 1-72.575833 72.557142H179.302801a72.642587 72.642587 0 0 1-72.561148-72.557142V179.720678a72.642587 72.642587 0 0 1 72.561148-72.559812z m725.014696 737.105106V179.720678a59.677705 59.677705 0 0 0-59.614957-59.614957h-665.399739a59.677705 59.677705 0 0 0-59.614957 59.614957v664.549299a59.677705 59.677705 0 0 0 59.614957 59.614957h665.383719a59.677705 59.677705 0 0 0 59.618962-59.614957z" fill="#00ADB5" p-id="4336"></path><path d="M715.137836 431.703447l-101.576261-101.577596v369.757455a90.250847 90.250847 0 0 1-90.250847 90.250848H287.92824a29.602545 29.602545 0 1 1 0-59.20509h235.382488a31.040417 31.040417 0 0 0 31.044422-31.044423V330.125851l-101.577596 101.577596a29.60655 29.60655 0 0 1-41.869184-41.869184l143.91005-143.910049a41.208323 41.208323 0 0 1 58.267869 0l143.920731 143.92073a29.60121 29.60121 0 1 1-41.867849 41.857168z" fill="#00ADB5" p-id="4337"></path><path d="M583.952355 227.382738a47.384365 47.384365 0 0 1 33.71323 13.95951l143.920731 143.927405a36.076308 36.076308 0 1 1-51.030446 51.01042l-90.517862-90.527207v354.13044a96.831416 96.831416 0 0 1-96.72194 96.72194H287.92824a36.076308 36.076308 0 1 1 0-72.15128h235.381152a24.598696 24.598696 0 0 0 24.56532-24.565319V345.752866l-90.527207 90.527207a36.078978 36.078978 0 0 1-51.022436-51.022435l143.92073-143.920731a47.356329 47.356329 0 0 1 33.706556-13.954169z m152.130086 206.524913a23.128782 23.128782 0 0 0 16.346618-39.484746l-143.92073-143.92073a34.735896 34.735896 0 0 0-49.113283 0l-143.92073 143.92073a23.132787 23.132787 0 1 0 32.709256 32.709257l112.62665-112.62665v385.377794a37.559572 37.559572 0 0 1-37.515515 37.515515H287.92824a23.130117 23.130117 0 1 0 0 46.260235h235.381152a83.871875 83.871875 0 0 0 83.77842-83.77575V314.500172l112.62665 112.626649a22.997945 22.997945 0 0 0 16.367979 6.78083z" fill="#00ADB5" p-id="4338"></path></svg>