<?xml version="1.0" standalone="no"?><!DOCTYPE svg PUBLIC "-//W3C//DTD SVG 1.1//EN" "http://www.w3.org/Graphics/SVG/1.1/DTD/svg11.dtd"><svg t="1659079437369" class="icon" viewBox="0 0 1032 1024" version="1.1" xmlns="http://www.w3.org/2000/svg" p-id="2236" xmlns:xlink="http://www.w3.org/1999/xlink" width="201.5625" height="200"><defs><style type="text/css">@font-face { font-family: feedback-iconfont; src: url("//at.alicdn.com/t/font_1031158_u69w8yhxdu.woff2?t=1630033759944") format("woff2"), url("//at.alicdn.com/t/font_1031158_u69w8yhxdu.woff?t=1630033759944") format("woff"), url("//at.alicdn.com/t/font_1031158_u69w8yhxdu.ttf?t=1630033759944") format("truetype"); }
</style></defs><path d="M953.656407 791.564016L516.005215 332.039009 78.438133 791.485246a45.584688 45.584688 0 0 1-64.931213-0.017356l-1.173528-1.172192v-1.468579C4.148068 779.305387 0 768.610128 0 757.011025a48.261507 48.261507 0 0 1 13.445507-33.075067l467.942634-491.377147A46.696803 46.696803 0 0 1 514.420485 218.95176l1.735593 0.032042 1.351093-0.029372a46.631385 46.631385 0 0 1 32.940224 13.512261L1018.572934 723.942634a47.376355 47.376355 0 0 1 1.104104 64.939223v1.512636l-1.186879 1.174863a45.690159 45.690159 0 0 1-64.832417 0z m-439.238592-572.612256z" fill="#00ADB5" p-id="2237"></path></svg>