<?xml version="1.0" standalone="no"?><!DOCTYPE svg PUBLIC "-//W3C//DTD SVG 1.1//EN" "http://www.w3.org/Graphics/SVG/1.1/DTD/svg11.dtd"><svg t="1659079448411" class="icon" viewBox="0 0 1024 1024" version="1.1" xmlns="http://www.w3.org/2000/svg" p-id="2534" xmlns:xlink="http://www.w3.org/1999/xlink" width="200" height="200"><defs><style type="text/css">@font-face { font-family: feedback-iconfont; src: url("//at.alicdn.com/t/font_1031158_u69w8yhxdu.woff2?t=1630033759944") format("woff2"), url("//at.alicdn.com/t/font_1031158_u69w8yhxdu.woff?t=1630033759944") format("woff"), url("//at.alicdn.com/t/font_1031158_u69w8yhxdu.ttf?t=1630033759944") format("truetype"); }
</style></defs><path d="M149.876485 121.721158a30.989684 30.989684 0 0 0-12.816688 13.365403c-4.077309 7.945012-5.520522 15.73115-5.520522 41.295103v672.30206c0 25.565288 1.443213 33.351426 5.520522 41.296438a30.99102 30.99102 0 0 0 12.816688 13.358727c7.624595 4.248198 15.095656 5.752824 39.627598 5.752824h645.134686c24.531943 0 31.998999-1.503291 39.627599-5.752824a30.99102 30.99102 0 0 0 12.816688-13.364068c4.077309-7.945012 5.520522-15.73115 5.520522-41.296438V313.187797c0-16.060913-0.364475-20.960626-1.437873-25.821622a29.335531 29.335531 0 0 0-3.682127-9.266733c-2.536636-4.221497-5.600626-7.954357-16.502822-19.315817l-115.426294-120.289961c-10.902196-11.366801-14.484193-14.552282-18.532131-17.199729a26.933737 26.933737 0 0 0-8.895583-3.836996c-4.65673-1.112115-9.357518-1.49795-24.774925-1.497951H189.504083c-24.531943 0-31.998999 1.503291-39.627598 5.752824zM189.504083 38.71708H703.355828c20.538743 0 30.227359 0.783687 41.424605 3.471186a99.380068 99.380068 0 0 1 31.546409 13.617731c9.746023 6.350936 17.12363 12.93551 31.6412 28.069883l115.426294 120.289961c14.52291 15.135708 20.84314 22.829726 26.933737 32.976271a108.379786 108.379786 0 0 1 13.063677 32.874806c2.579359 11.669862 3.337679 21.761669 3.337679 43.170879v535.497262c0 37.228475-3.675452 57.060965-14.285267 77.72921a106.708276 106.708276 0 0 1-43.226952 45.046654c-19.83249 11.051724-38.859932 14.883379-74.586451 14.883379H189.504083c-35.722514 0-54.755296-3.830321-74.586451-14.883379A106.708276 106.708276 0 0 1 71.690681 926.406258c-10.607145-20.668245-14.285267-40.4994-14.285268-77.727875V176.376323c0-37.228475 3.675452-57.060965 14.285268-77.72921a106.708276 106.708276 0 0 1 43.226951-45.046654C134.750123 42.5474 153.777565 38.71708 189.504083 38.71708zM712.220704 115.292787h74.129857v257.106775c0 39.033492-4.762201 60.291838-18.199698 81.965392a116.08582 116.08582 0 0 1-50.840866 44.284329c-22.417189 10.34013-43.690222 13.884746-85.743645 13.884746H392.57116c-42.054759 0-63.321116-3.541945-85.743645-13.884746a116.095166 116.095166 0 0 1-50.840866-44.288334c-13.433492-21.672219-18.195692-42.935906-18.195692-81.973403V115.81213h74.129857v256.582092c0 14.490868 0.778347 23.947181 2.161481 30.119217a28.036506 28.036506 0 0 0 4.166758 9.914243c3.967833 6.400334 10.046415 11.641825 18.581528 15.578952 11.595098 5.346962 23.150143 7.272136 55.737909 7.272135h239.003202c32.587765 0 44.144146-1.925173 55.739244-7.272135 8.533778-3.935791 14.61236-9.177283 18.581528-15.577617a28.099254 28.099254 0 0 0 4.166759-9.914243c1.381799-6.177377 2.161481-15.629684 2.161481-30.119217V115.292787z" fill="#00ADB5" p-id="2535"></path></svg>