<?xml version="1.0" standalone="no"?><!DOCTYPE svg PUBLIC "-//W3C//DTD SVG 1.1//EN" "http://www.w3.org/Graphics/SVG/1.1/DTD/svg11.dtd"><svg t="1659079432031" class="icon" viewBox="0 0 1024 1024" version="1.1" xmlns="http://www.w3.org/2000/svg" p-id="2085" xmlns:xlink="http://www.w3.org/1999/xlink" width="200" height="200"><defs><style type="text/css">@font-face { font-family: feedback-iconfont; src: url("//at.alicdn.com/t/font_1031158_u69w8yhxdu.woff2?t=1630033759944") format("woff2"), url("//at.alicdn.com/t/font_1031158_u69w8yhxdu.woff?t=1630033759944") format("woff"), url("//at.alicdn.com/t/font_1031158_u69w8yhxdu.ttf?t=1630033759944") format("truetype"); }
</style></defs><path d="M511.472647 992.139849c264.886237 0 479.613831-214.732934 479.61383-479.613831S776.352209 32.910853 511.472647 32.910853 31.860151 247.634441 31.860151 512.527353s214.731598 479.612495 479.612496 479.612496z m0-68.517215c-226.935489-0.267014-410.838947-184.171807-411.101956-411.101956 0.232302-226.946169 184.151781-410.874993 411.101956-411.101956 226.935489 0.267014 410.838947 184.171807 411.101955 411.101956-0.267014 226.935489-184.171807 410.838947-411.101955 411.101956z" fill="#00ADB5" p-id="2086"></path><path d="M511.472647 995.963494c266.571098 0 483.436141-216.871718 483.43614-483.436141S778.038404 29.087207 511.472647 29.087207 28.036506 245.94958 28.036506 512.527353 244.908224 995.963494 511.472647 995.963494z m0-959.238341c262.354941 0 475.78885 213.440584 475.78885 475.78885S773.834263 988.316203 511.472647 988.316203 35.683797 774.875619 35.683797 512.527353 249.124381 36.725153 511.472647 36.725153z m0 890.721126C739.999541 927.1806 926.139244 741.054248 926.406258 512.527353c-0.267014-228.526894-186.406717-414.665262-414.922931-414.932276h-0.01068c-228.558936 0.228297-414.690628 186.357319-414.918926 414.921596 0.267014 228.537575 186.392031 414.662592 414.918926 414.929606z m0-822.203911c224.320083 0.254999 407.020641 182.967572 407.282315 407.28365-0.257669 224.305398-182.960897 407.011296-407.282315 407.27297-224.298722-0.260339-407.009961-182.967572-407.271635-407.282315 0.224292-224.34278 182.928855-407.050013 407.28098-407.27297z" fill="#00ADB5" p-id="2087"></path><path d="M497.461069 197.338284a37.399364 37.399364 0 0 0-12.446873 8.262759L209.944031 480.673877a37.61698 37.61698 0 1 0 53.198603 53.197268l212.089491-212.089492v472.249575a36.388714 36.388714 0 0 0 71.346232 10.089137l1.416511 2.477893v-484.81794l212.089492 212.089492a37.61698 37.61698 0 1 0 53.199937-53.198603L538.212798 205.601043a37.657033 37.657033 0 0 0-40.751729-8.262759z" fill="#00ADB5" p-id="2088"></path></svg>