<?xml version="1.0" standalone="no"?><!DOCTYPE svg PUBLIC "-//W3C//DTD SVG 1.1//EN" "http://www.w3.org/Graphics/SVG/1.1/DTD/svg11.dtd"><svg t="1659079519871" class="icon" viewBox="0 0 1034 1024" version="1.1" xmlns="http://www.w3.org/2000/svg" p-id="4182" xmlns:xlink="http://www.w3.org/1999/xlink" width="201.953125" height="200"><defs><style type="text/css">@font-face { font-family: feedback-iconfont; src: url("//at.alicdn.com/t/font_1031158_u69w8yhxdu.woff2?t=1630033759944") format("woff2"), url("//at.alicdn.com/t/font_1031158_u69w8yhxdu.woff?t=1630033759944") format("woff"), url("//at.alicdn.com/t/font_1031158_u69w8yhxdu.ttf?t=1630033759944") format("truetype"); }
</style></defs><path d="M38.352605 938.333789h-2.403129c-12.00096-2.401794-21.613476-12.00897-21.613476-24.01794V145.765799c0-40.829163 31.221987-72.05115 72.05115-72.05115h312.223875c7.209387 0 14.410764 2.403129 19.214352 9.612517l112.881648 134.496459h312.221204c40.829163 0 72.05115 31.221987 72.05115 72.051149v144.098295c0 14.410764-9.612516 24.016605-24.01794 24.016605H177.652652l-115.282107 461.133768c-2.403129 12.00897-12.00897 19.214352-24.016605 19.214352zM86.38715 121.749194c-14.410764 0-24.016605 9.612516-24.016605 24.016605V719.77721l72.05115-290.607729c2.403129-12.00897 12.00897-19.214352 24.016605-19.214352h708.507869v-120.085695c0-14.410764-9.612516-24.016605-24.016604-24.016605H518.69672c-7.209387 0-14.410764-2.403129-19.214352-9.612516l-112.880313-134.496459z" fill="#00ADB5" p-id="4183"></path><path d="M38.352605 949.014362h-3.456501l-1.03735-0.206936c-17.501455-3.500558-30.203327-18.006112-30.203328-34.491577V145.765799c0-46.391072 36.340652-82.731724 82.731724-82.731723h312.223875c11.946222 0 21.925883 5.101309 28.100589 14.362701l108.969888 129.740934h307.248063c46.392407 0 82.731724 36.340652 82.731723 82.731723v144.103635c0 20.426597-14.267911 34.697179-34.698514 34.697179H185.992845L72.732037 921.709476c-3.214853 16.131671-17.074232 27.303551-34.379432 27.303551z m-1.220256-21.361147h1.220256c7.25745 0 12.194545-3.871708 13.544302-10.628506l117.416887-469.715609h721.64898c8.475035 0 13.337366-4.860996 13.337367-13.336031V289.869434c0-34.986889-26.383687-61.370576-61.370576-61.370576H525.725872l-116.08315-138.313429c-2.093392-3.023937-4.672751-5.792876-11.033032-5.792876H86.38715c-34.986889 0.00267-61.370576 26.386357-61.370576 61.373246v768.55005c0 6.843578 5.953085 11.768657 12.11711 13.337366z m35.603693-205.304657l-21.047406-2.570013V145.767134c0-20.426597 14.267911-34.697179 34.697179-34.697178h305.197392l116.081815 138.313429c2.093392 3.023937 4.672751 5.792876 11.033033 5.792876h324.23151c20.426597 0 34.697179 14.267911 34.697178 34.697178v130.766269H158.439635c-7.256115 0-12.19321 3.871708-13.544303 10.628506zM86.385815 132.431103c-8.475035 0-13.336031 4.860996-13.336031 13.336031V632.316662l50.999739-205.717194c3.218858-16.154368 17.079572-27.323578 34.383437-27.323578h697.832636v-109.406456c0-8.475035-4.860996-13.336031-13.336031-13.336031H518.69672c-11.946222 0-21.925883-5.101309-28.10059-14.362702l-108.971223-129.740933z" fill="#00ADB5" p-id="4184"></path><path d="M902.971744 938.333789H38.352605c-7.209387 0-14.410764-2.403129-19.214352-9.612517-4.806258-4.806258-4.806258-12.00897-4.806258-19.214352l115.282107-480.344114c2.403129-9.612516 12.00897-19.214352 24.016605-19.214352h845.410127c7.209387 0 14.410764 2.403129 19.214352 9.612516a18.678988 18.678988 0 0 1 4.806259 19.214352l-96.070425 480.34545c-2.403129 12.00897-12.00897 19.214352-24.016605 19.214352zM69.575927 890.299244h814.182801l86.461913-432.30957h-797.371577z" fill="#00ADB5" p-id="4185"></path><path d="M902.971744 949.014362H38.352605c-11.581747 0-21.31709-4.795578-27.526509-13.529616-7.17067-7.824855-7.17067-17.856584-7.17067-25.97115v-1.264313l115.577158-481.572381c3.337679-13.334696 16.506827-27.402347 34.402128-27.402347h845.406122c11.569731 0 21.295729 4.784897 27.502478 13.500246a29.306159 29.306159 0 0 1 6.643316 29.378252l-95.724641 479.061111c-3.324329 16.628318-17.185043 27.800198-34.490243 27.800198zM25.016574 910.772568c0.012016 4.336313 0.148193 8.875557 1.67418 10.402879l0.74764 0.74764 0.586096 0.879813c1.388475 2.082712 3.969168 4.850316 10.32678 4.850315h864.619139c7.25745 0 12.19321-3.871708 13.544303-10.627171l96.06909-480.344114a9.039771 9.039771 0 0 0-1.882451-9.567124l-0.74764-0.74764-0.586097-0.879813c-1.388475-2.082712-3.969168-4.850316-10.32678-4.850315H153.636047c-6.504469 0-12.312031 5.751489-13.655113 11.123817z m867.497554-9.792751H56.04364l108.375781-453.670717h818.82885z m-809.405914-21.361147h791.895113l82.189685-410.948422H181.278707z" fill="#00ADB5" p-id="4186"></path></svg>