<?xml version="1.0" standalone="no"?><!DOCTYPE svg PUBLIC "-//W3C//DTD SVG 1.1//EN" "http://www.w3.org/Graphics/SVG/1.1/DTD/svg11.dtd"><svg t="1659079468031" class="icon" viewBox="0 0 1024 1024" version="1.1" xmlns="http://www.w3.org/2000/svg" p-id="2983" xmlns:xlink="http://www.w3.org/1999/xlink" width="200" height="200"><defs><style type="text/css">@font-face { font-family: feedback-iconfont; src: url("//at.alicdn.com/t/font_1031158_u69w8yhxdu.woff2?t=1630033759944") format("woff2"), url("//at.alicdn.com/t/font_1031158_u69w8yhxdu.woff?t=1630033759944") format("woff"), url("//at.alicdn.com/t/font_1031158_u69w8yhxdu.ttf?t=1630033759944") format("truetype"); }
</style></defs><path d="M901.790206 101.605632L553.476673 449.829716 205.251254 101.605632a45.373747 45.373747 0 0 0-31.133872-12.470904c-11.498973 0-21.669549 4.423093-30.426284 13.178492a41.571463 41.571463 0 0 0-13.090378 30.426285c0 11.498973 4.157413 21.847113 12.38279 31.045757l348.313533 348.312198-348.313533 348.225419a42.45528 42.45528 0 0 0-11.763317 42.809074 39.624928 39.624928 0 0 0 30.426284 31.133872 44.401815 44.401815 0 0 0 43.523338-11.763317l348.306858-348.224083 348.224083 348.224083a45.228224 45.228224 0 0 0 31.133872 12.382791c11.498973 0 21.581434-4.333643 30.426285-13.090379a41.570128 41.570128 0 0 0 13.090378-30.426284 45.551312 45.551312 0 0 0-12.38279-31.045757l-348.400313-348.313533 348.312198-348.224084a42.45528 42.45528 0 0 0 11.763317-42.898524 39.802493 39.802493 0 0 0-31.133872-31.045758 42.45528 42.45528 0 0 0-42.89719 11.763317z" fill="#00ADB5" p-id="2984"></path></svg>