<?xml version="1.0" standalone="no"?><!DOCTYPE svg PUBLIC "-//W3C//DTD SVG 1.1//EN" "http://www.w3.org/Graphics/SVG/1.1/DTD/svg11.dtd"><svg t="1659079346710" class="icon" viewBox="0 0 1024 1024" version="1.1" xmlns="http://www.w3.org/2000/svg" p-id="1934" xmlns:xlink="http://www.w3.org/1999/xlink" width="200" height="200"><defs><style type="text/css">@font-face { font-family: feedback-iconfont; src: url("//at.alicdn.com/t/font_1031158_u69w8yhxdu.woff2?t=1630033759944") format("woff2"), url("//at.alicdn.com/t/font_1031158_u69w8yhxdu.woff?t=1630033759944") format("woff"), url("//at.alicdn.com/t/font_1031158_u69w8yhxdu.ttf?t=1630033759944") format("truetype"); }
</style></defs><path d="M511.472647 31.860151c264.886237 0 479.613831 214.732934 479.61383 479.613831S776.352209 991.087812 511.472647 991.087812 31.860151 776.362889 31.860151 511.472647 246.59175 31.860151 511.472647 31.860151z m0 68.517215C284.535823 100.640375 100.6337 284.549173 100.370691 511.484662c0.232302 226.944834 184.151781 410.869653 411.101956 411.096616 226.935489-0.267014 410.838947-184.171807 411.101955-411.101956-0.267014-226.935489-184.171807-410.838947-411.101955-411.101956z" fill="#00ADB5" p-id="1935"></path><path d="M511.472647 28.036506C778.04508 28.036506 994.908787 244.908224 994.908787 511.472647S778.038404 994.912793 511.472647 994.912793 28.036506 778.05042 28.036506 511.472647 244.908224 28.036506 511.472647 28.036506z m0 959.238341c262.354941 0 475.78885-213.440584 475.78885-475.78885S773.834263 35.683797 511.472647 35.683797 35.683797 249.124381 35.683797 511.472647 249.124381 987.274847 511.472647 987.274847z m0-890.721126c228.526894 0.267014 414.665262 186.393366 414.932276 414.920261C926.139244 739.999541 739.999541 926.139244 511.483327 926.406258h-0.01068c-228.564276-0.228297-414.690628-186.361325-414.920261-414.921596 0.267014-228.537575 186.392031-414.662592 414.918926-414.929606z m0 822.203911c224.320083-0.254999 407.020641-182.967572 407.282315-407.28365C918.497293 287.173924 735.794065 104.462686 511.472647 104.201012 287.173924 104.462686 104.462686 287.173924 104.201012 511.483327 104.425304 735.827442 287.129867 918.529335 511.481992 918.756297z" fill="#00ADB5" p-id="1936"></path><path d="M497.461069 826.661716a37.399364 37.399364 0 0 1-12.446873-8.262759L209.944031 543.327458a37.364652 37.364652 0 0 1-8.264094-12.445539 37.478133 37.478133 0 0 1-2.754253-14.15176 37.470123 37.470123 0 0 1 2.754253-14.15176 37.382008 37.382008 0 0 1 8.264094-12.446874 37.382008 37.382008 0 0 1 12.445539-8.262758 37.515515 37.515515 0 0 1 14.15176-2.754253 37.460777 37.460777 0 0 1 14.15176 2.754253 37.391353 37.391353 0 0 1 12.445538 8.264093l212.097502 212.085487V229.967437a36.169763 36.169763 0 0 1 2.859724-14.162441 36.256542 36.256542 0 0 1 7.795484-11.563056 36.225836 36.225836 0 0 1 11.564391-7.796819A36.169763 36.169763 0 0 1 511.616834 193.585398a36.172433 36.172433 0 0 1 14.162441 2.859723 36.240522 36.240522 0 0 1 11.564391 7.796819 36.256542 36.256542 0 0 1 7.795484 11.563056 36.232511 36.232511 0 0 1 1.444548 4.073304l1.416511-2.477893v484.819275l212.089491-212.089492a37.357977 37.357977 0 0 1 12.445539-8.264094 37.475463 37.475463 0 0 1 14.15176-2.754252 37.480803 37.480803 0 0 1 14.15176 2.754252 37.382008 37.382008 0 0 1 12.445538 8.264094 37.382008 37.382008 0 0 1 8.264094 12.445539 37.515515 37.515515 0 0 1 2.754253 14.15176 37.515515 37.515515 0 0 1-2.754253 14.15176 37.412714 37.412714 0 0 1-8.264094 12.445538L538.212798 818.398957a37.382008 37.382008 0 0 1-12.445539 8.262759 37.486143 37.486143 0 0 1-14.15176 2.754253 37.474128 37.474128 0 0 1-14.15443-2.754253z" fill="#00ADB5" p-id="1937"></path></svg>