<?xml version="1.0" standalone="no"?><!DOCTYPE svg PUBLIC "-//W3C//DTD SVG 1.1//EN" "http://www.w3.org/Graphics/SVG/1.1/DTD/svg11.dtd"><svg t="1659079479687" class="icon" viewBox="0 0 1024 1024" version="1.1" xmlns="http://www.w3.org/2000/svg" p-id="3282" xmlns:xlink="http://www.w3.org/1999/xlink" width="200" height="200"><defs><style type="text/css">@font-face { font-family: feedback-iconfont; src: url("//at.alicdn.com/t/font_1031158_u69w8yhxdu.woff2?t=1630033759944") format("woff2"), url("//at.alicdn.com/t/font_1031158_u69w8yhxdu.woff?t=1630033759944") format("woff"), url("//at.alicdn.com/t/font_1031158_u69w8yhxdu.ttf?t=1630033759944") format("truetype"); }
</style></defs><path d="M183.143802 438.856761a35.075004 35.075004 0 0 0-36.571619 36.57162v438.856761c0 10.680574 3.43781 19.456 10.24 26.331619 6.875619 6.808866 15.652381 10.24 26.331619 10.24H841.428944a35.075004 35.075004 0 0 0 36.571619-36.571619V475.428381a35.075004 35.075004 0 0 0-36.571619-36.57162z m0-73.143238H841.428944q46.847666 1.097429 77.750571 32.041721c20.48 20.48 31.231332 46.44581 31.962952 77.677142v438.852756q-1.097429 46.847666-32.041721 77.750571C898.626086 1012.518383 872.660276 1023.268381 841.428944 1024H183.143802q-46.847666-1.097429-77.750571-32.041721c-20.48-20.48-31.232668-46.44581-31.962952-77.677142V475.428381q1.097429-46.847666 32.041721-77.750571c20.473325-20.48 46.439134-31.232668 77.671802-31.962952z m329.141903 182.858096c10.680574 0 19.456 3.43781 26.33162 10.24 6.808866 6.875619 10.24 15.652381 10.24 26.33162v219.42838a36.580965 36.580965 0 1 1-73.143239 0V585.143239c0-10.680574 3.43781-19.456 10.24-26.33162a35.621048 35.621048 0 0 1 26.331619-10.24z m219.428381-182.856761v-73.143239q-2.304334-93.696668-63.999332-155.429048-61.658952-61.658952-155.429049-63.999332-93.696668 2.304334-155.429048 63.999332-61.658952 61.658952-63.999332 155.429048v73.143239zM512.285705 0q124.526143 3.401763 206.848 85.723619 82.28581 82.28581 85.72362 206.848v146.285142H219.714086V292.571619q3.401763-124.526143 85.723619-206.848Q387.723515 3.43781 512.285705 0z" fill="#00ADB5" p-id="3283"></path></svg>