<?xml version="1.0" standalone="no"?><!DOCTYPE svg PUBLIC "-//W3C//DTD SVG 1.1//EN" "http://www.w3.org/Graphics/SVG/1.1/DTD/svg11.dtd"><svg t="1659079541673" class="icon" viewBox="0 0 1024 1024" version="1.1" xmlns="http://www.w3.org/2000/svg" p-id="4786" xmlns:xlink="http://www.w3.org/1999/xlink" width="200" height="200"><defs><style type="text/css">@font-face { font-family: feedback-iconfont; src: url("//at.alicdn.com/t/font_1031158_u69w8yhxdu.woff2?t=1630033759944") format("woff2"), url("//at.alicdn.com/t/font_1031158_u69w8yhxdu.woff?t=1630033759944") format("woff"), url("//at.alicdn.com/t/font_1031158_u69w8yhxdu.ttf?t=1630033759944") format("truetype"); }
</style></defs><path d="M948.698016 175.608074H780.707543V107.870208a100.817969 100.817969 0 0 0-100.254016-100.819379H341.762786a100.817969 100.817969 0 0 0-100.252606 101.638522v67.737866H73.518298a33.900656 33.900656 0 0 0 0 67.737866h875.179718a34.21506 34.21506 0 1 0 0-68.430119z m-235.732569 0h-406.427197V107.870208a34.530874 34.530874 0 0 1 33.900655-33.900655h338.882486a32.51192 32.51192 0 0 1 32.51474 33.900655zM444.031526 712.789304V343.599956a33.869638 33.869638 0 1 0-67.739276 0v369.189348a33.869638 33.869638 0 0 0 67.737866 0z m201.640169 0V343.599956a33.902065 33.902065 0 0 0-67.740686 0v369.189348a33.900656 33.900656 0 1 0 67.737866 0z" fill="#00ADB5" p-id="4787"></path><path d="M367.472017 1016.949171A203.215009 203.215009 0 0 1 164.257008 813.732753V309.066263a33.899246 33.899246 0 0 1 33.868229-32.437196 33.900656 33.900656 0 0 1 33.871048 32.437196v504.6679a135.472913 135.472913 0 0 0 135.475732 135.475732h287.210245a135.477142 135.477142 0 0 0 135.475732-135.478552V309.066263a33.902065 33.902065 0 0 1 33.899246-33.900655 33.900656 33.900656 0 0 1 24.376891 9.69859 33.906295 33.906295 0 0 1 10.151163 24.202065v504.66649A203.216419 203.216419 0 0 1 655.370285 1016.949171z m223.353789-267.532497a40.900728 40.900728 0 0 1-19.930118-36.938955l-0.007049-368.884812a40.926106 40.926106 0 0 1 40.919057-39.488025 40.865481 40.865481 0 0 1 40.913417 39.18349v369.493882a40.76679 40.76679 0 0 1-19.937166 36.627371 40.966993 40.966993 0 0 1-20.9833 5.780523 40.957124 40.957124 0 0 1-20.974841-5.773474z m-5.845379-405.512183l0.00705 368.884813a26.959798 26.959798 0 0 0 13.062573 24.520698 26.852646 26.852646 0 0 0 13.757646 3.792588 26.856876 26.856876 0 0 0 13.759056-3.792588 26.818809 26.818809 0 0 0 13.068213-24.216163V343.601366a26.739856 26.739856 0 0 0-26.82022-25.389187 26.796251 26.796251 0 0 0-26.839957 25.692312zM381.233893 741.722939a40.6399 40.6399 0 0 1-11.984013-28.933635V343.599956a40.965583 40.965583 0 0 1 40.919057-40.919056 40.964173 40.964173 0 0 1 40.919057 40.919056v369.189348a40.964173 40.964173 0 0 1-40.919057 40.917647 40.651179 40.651179 0 0 1-28.940684-11.985422z m2.114825-398.121573v369.189347a26.646803 26.646803 0 0 0 7.853053 18.964347 26.646803 26.646803 0 0 0 18.964347 7.854463 26.851237 26.851237 0 0 0 26.820219-26.81881V343.601366a26.851237 26.851237 0 0 0-26.820219-26.820219 26.849827 26.849827 0 0 0-26.824449 26.818809z m565.356347-92.385454H73.526757A40.926106 40.926106 0 0 1 34.037323 210.298265a40.862662 40.862662 0 0 1 39.18349-40.912008h161.245588V108.6964a107.111691 107.111691 0 0 1 31.068199-76.570788A107.151167 107.151167 0 0 1 341.727539 0.007049h338.730218a108.123987 108.123987 0 0 1 107.303435 107.868799v60.688447h167.991882v0.73032a41.333563 41.333563 0 0 1 34.21506 40.662458 40.992371 40.992371 0 0 1-12.085524 29.184594 40.995191 40.995191 0 0 1-29.184594 12.085524zM48.13616 210.298265a26.796251 26.796251 0 0 0 25.695132 26.825858h874.873773a26.986585 26.986585 0 0 0 19.209667-7.955974 26.982356 26.982356 0 0 0 7.955974-19.208256 27.198068 27.198068 0 0 0-27.165641-27.167051h-7.049419v-0.126889H773.663764V107.878667a93.984263 93.984263 0 0 0-93.244074-93.76996H341.785344a93.148202 93.148202 0 0 0-66.213781 27.915699 93.149612 93.149612 0 0 0-27.007734 66.612779v74.84509H73.523938A26.738446 26.738446 0 0 0 48.129111 210.295445z m251.35972-27.633722V107.877258a41.463272 41.463272 0 0 1 40.821775-40.948665h339.009375a39.772821 39.772821 0 0 1 28.582574 12.174346 39.758723 39.758723 0 0 1 10.974536 29.076034l1.259026 74.48698z m14.098838-74.658986v60.560148h392.212749l-1.013706-60.570017a25.898155 25.898155 0 0 0-7.059288-19.133533 25.587981 25.587981 0 0 0-18.373605-7.834724H340.445955a27.360205 27.360205 0 0 0-26.858286 26.969667z" fill="#00ADB5" p-id="4788"></path><path d="M824.695917 268.111959a40.711804 40.711804 0 0 1 28.681266 11.721774 41.196804 41.196804 0 0 1 12.265989 29.23394v504.66649c0 115.940383-94.321225 210.265837-210.264428 210.265837h-287.898268A210.264428 210.264428 0 0 1 157.207589 813.734163v-504.6679a40.947255 40.947255 0 0 1 81.831065-0.304535v504.972435a128.423494 128.423494 0 0 0 128.427723 128.424903h287.210245a128.572942 128.572942 0 0 0 128.427724-128.429133V309.069083a40.99801 40.99801 0 0 1 40.948664-40.951484zM655.381564 1009.901162c108.166284 0 196.16559-88.000716 196.16559-196.166999v-504.6679a27.014783 27.014783 0 0 0-8.036338-19.174419 26.69192 26.69192 0 0 0-18.80503-7.685277v-7.049419l-0.501918 7.049419a26.914681 26.914681 0 0 0-26.985176 26.852647v504.674949a142.688698 142.688698 0 0 1-142.54207 142.526561H367.472017a142.522332 142.522332 0 0 1-142.527971-142.525152V309.066263a26.855466 26.855466 0 0 0-53.646078 0.304535v504.363365a196.16559 196.16559 0 0 0 196.174049 196.166999z" fill="#00ADB5" p-id="4789"></path></svg>