<?xml version="1.0" standalone="no"?><!DOCTYPE svg PUBLIC "-//W3C//DTD SVG 1.1//EN" "http://www.w3.org/Graphics/SVG/1.1/DTD/svg11.dtd"><svg t="1659079461180" class="icon" viewBox="0 0 1024 1024" version="1.1" xmlns="http://www.w3.org/2000/svg" p-id="2833" xmlns:xlink="http://www.w3.org/1999/xlink" width="200" height="200"><defs><style type="text/css">@font-face { font-family: feedback-iconfont; src: url("//at.alicdn.com/t/font_1031158_u69w8yhxdu.woff2?t=1630033759944") format("woff2"), url("//at.alicdn.com/t/font_1031158_u69w8yhxdu.woff?t=1630033759944") format("woff"), url("//at.alicdn.com/t/font_1031158_u69w8yhxdu.ttf?t=1630033759944") format("truetype"); }
</style></defs><path d="M511.44995 21.265022c-270.719166 0-490.184928 219.465763-490.184928 490.184928s219.465763 490.186263 490.184928 490.186264 490.186263-219.465763 490.186264-490.186264-219.453747-490.184928-490.186264-490.184928z m0 70.027181c231.938003 0.267014 419.896073 188.23176 420.164423 420.164423-0.225627 231.954023-188.203724 419.933455-420.164423 420.164422-231.938003-0.268349-419.893403-188.23176-420.160417-420.164422 0.267014-231.938003 188.227755-419.900078 420.160417-420.167093z m196.713471 392.64192L428.823698 263.629935a34.90812 34.90812 0 1 0-43.212266 54.8354l244.47032 192.784355L385.614102 704.103468a34.90812 34.90812 0 1 0 43.210931 54.8354l279.337053-220.310863a34.639771 34.639771 0 0 0 0-54.687207z" fill="#00ADB5" p-id="2834"></path><path d="M511.44995 17.355932C239.008542 17.355932 17.355932 239.008542 17.355932 511.44995s221.65261 494.092683 494.094018 494.092684 494.092683-221.651275 494.092684-494.092684S783.903374 17.355932 511.44995 17.355932z m0 980.384543c-268.131797 0-486.277173-218.150717-486.277173-486.290525S243.318154 25.171442 511.44995 25.171442s486.277173 218.150717 486.277174 486.277173-218.132026 486.291859-486.277174 486.29186z m0-910.357362c-233.557445 0.267014-423.793147 190.501382-424.065501 424.066837 0.267014 233.56412 190.501382 423.806498 424.065501 424.078853h0.009346c233.600167-0.233638 423.83587-190.46934 424.068172-424.068172-0.267014-233.574801-190.514733-423.803828-424.066837-424.076182z m0 840.33018C282.184761 927.451619 95.457627 740.711134 95.190613 511.44995c0.267014-229.251838 187.002159-415.984313 416.260673-416.251327C740.697784 95.465638 927.434263 282.200782 927.701278 511.465971c-0.226962 229.285215-186.962107 416.019025-416.260673 416.247322z m-104.188996-675.439478a38.775823 38.775823 0 0 0-24.072678 69.247499l240.579922 189.72437L383.196287 701.032803A38.81187 38.81187 0 0 0 431.228162 762.009533l279.353074-220.313533a38.547525 38.547525 0 0 0 0-60.833877L431.242847 260.560605a38.547525 38.547525 0 0 0-23.981893-8.28679z m0 510.197653a30.960313 30.960313 0 0 1-19.217022-55.308016l248.348704-195.919103-248.358049-195.855019a30.995025 30.995025 0 0 1 38.373966-48.68606l279.334383 220.300182a30.730681 30.730681 0 0 1 0 48.549883L426.403213 755.862863a30.781413 30.781413 0 0 1-19.140924 6.60727z" fill="#00ADB5" p-id="2835"></path></svg>