<?xml version="1.0" standalone="no"?><!DOCTYPE svg PUBLIC "-//W3C//DTD SVG 1.1//EN" "http://www.w3.org/Graphics/SVG/1.1/DTD/svg11.dtd"><svg t="1659079495288" class="icon" viewBox="0 0 1024 1024" version="1.1" xmlns="http://www.w3.org/2000/svg" p-id="3731" xmlns:xlink="http://www.w3.org/1999/xlink" width="200" height="200"><defs><style type="text/css">@font-face { font-family: feedback-iconfont; src: url("//at.alicdn.com/t/font_1031158_u69w8yhxdu.woff2?t=1630033759944") format("woff2"), url("//at.alicdn.com/t/font_1031158_u69w8yhxdu.woff?t=1630033759944") format("woff"), url("//at.alicdn.com/t/font_1031158_u69w8yhxdu.ttf?t=1630033759944") format("truetype"); }
</style></defs><path d="M183.106371 439.06198a35.062851 35.062851 0 0 0-36.558125 36.558126v438.702847c0 10.680532 3.436461 19.449249 10.235954 26.322171 6.872922 6.799494 15.646979 10.235955 26.322171 10.235955h658.054271a35.062851 35.062851 0 0 0 36.558126-36.558126v-438.702847a35.062851 35.062851 0 0 0-36.558126-36.558126z m0-73.116251h658.054271q46.831462 1.097425 77.723566 31.952146c20.473245 20.618767 31.22053 46.501701 31.952146 77.723566v438.702847q-1.097425 46.831462-32.025575 77.723566c-20.473245 20.473245-46.429607 31.22053-77.650137 31.952146h-658.054271q-46.831462-1.097425-77.723565-32.025575C84.912231 971.49851 74.162276 945.542148 73.430659 914.321618v-438.702847q1.097425-46.831462 32.025575-77.723566c20.473245-20.473245 46.429607-31.22053 77.650137-31.952146zM512.133507 548.733687c10.680532 0 19.449249 3.436461 26.32217 10.235955 6.799494 6.872922 10.235955 15.646979 10.235955 26.32217v219.351424a36.570141 36.570141 0 1 1-73.116251 0v-219.351424c0-10.680532 3.436461-19.449249 10.235955-26.32217a35.607558 35.607558 0 0 1 26.322171-10.235955z m204.250486-337.679702c-21.214206-28.047077-54.21705-85.808728-99.183424-110.156335a219.351424 219.351424 0 0 0-146.233837-22.88571q-78.746227 16.011452-127.954108 74.874534-49.028982 58.781642-50.230541 139.941669v73.116251h402.142052l109.675711 43.431048v29.685203H219.664497V292.828143q2.30299-107.371387 66.829423-186.228424 64.483711-78.746227 170.800396-101.631937 105.069732-18.315777 194.7862 30.854722c59.810979 32.755856 129.724405 127.944762 131.975327 148.50078 6.439026 36.323154-40.700837 56.574777-67.66918 26.730701z" fill="#00ADB5" p-id="3732"></path></svg>