<?xml version="1.0" standalone="no"?><!DOCTYPE svg PUBLIC "-//W3C//DTD SVG 1.1//EN" "http://www.w3.org/Graphics/SVG/1.1/DTD/svg11.dtd"><svg t="1659079455588" class="icon" viewBox="0 0 1025 1024" version="1.1" xmlns="http://www.w3.org/2000/svg" p-id="2683" xmlns:xlink="http://www.w3.org/1999/xlink" width="200.1953125" height="200"><defs><style type="text/css">@font-face { font-family: feedback-iconfont; src: url("//at.alicdn.com/t/font_1031158_u69w8yhxdu.woff2?t=1630033759944") format("woff2"), url("//at.alicdn.com/t/font_1031158_u69w8yhxdu.woff?t=1630033759944") format("woff"), url("//at.alicdn.com/t/font_1031158_u69w8yhxdu.ttf?t=1630033759944") format("truetype"); }
</style></defs><path d="M42.702269 938.568761h938.595462c12.457554 0 22.696219 4.005215 30.71733 11.946222 7.935666 8.021111 11.946222 18.265116 11.946222 30.71733a40.918613 40.918613 0 0 1-42.663552 42.663551H42.702269A40.918613 40.918613 0 0 1 0.040052 981.232313c0-12.457554 4.005215-22.696219 11.946222-30.71733a41.554107 41.554107 0 0 1 30.71733-11.946222z" fill="#00ADB5" p-id="2684"></path><path d="M553.125549 42.453945v597.774352l271.046258-271.046258a42.663551 42.663551 0 0 1 60.335896 60.335896L542.165945 771.854352a42.663551 42.663551 0 0 1-60.33456 0l-342.339088-342.339087a42.663551 42.663551 0 1 1 60.335896-60.333226l271.046258 271.046258V42.453945a41.125549 41.125549 0 1 1 82.249763 0z" fill="#00ADB5" p-id="2685"></path></svg>