<?xml version="1.0" standalone="no"?><!DOCTYPE svg PUBLIC "-//W3C//DTD SVG 1.1//EN" "http://www.w3.org/Graphics/SVG/1.1/DTD/svg11.dtd"><svg t="1659079530849" class="icon" viewBox="0 0 1024 1024" version="1.1" xmlns="http://www.w3.org/2000/svg" p-id="4486" xmlns:xlink="http://www.w3.org/1999/xlink" width="200" height="200"><defs><style type="text/css">@font-face { font-family: feedback-iconfont; src: url("//at.alicdn.com/t/font_1031158_u69w8yhxdu.woff2?t=1630033759944") format("woff2"), url("//at.alicdn.com/t/font_1031158_u69w8yhxdu.woff?t=1630033759944") format("woff"), url("//at.alicdn.com/t/font_1031158_u69w8yhxdu.ttf?t=1630033759944") format("truetype"); }
</style></defs><path d="M167.853226 955.8526a100.552261 100.552261 0 0 1-100.34399-100.33865V188.457387A100.548256 100.548256 0 0 1 167.84922 88.114733h443.877966a36.6851 36.6851 0 0 1 0.315077 73.304782l-439.616417 0.00801a31.323452 31.323452 0 0 0-31.28607 31.287406v658.15564a31.323452 31.323452 0 0 0 31.287405 31.287406h682.35515a31.28607 31.28607 0 0 0 31.286071-31.287406V447.649544a36.807927 36.807927 0 0 1 36.674419-36.750519v0.062748a36.757194 36.757194 0 0 1 36.637038 36.530232V855.51395a100.549591 100.549591 0 0 1-100.338649 100.34399z m0-854.078749a86.870446 86.870446 0 0 0-86.686206 86.688877V855.51395a86.871781 86.871781 0 0 0 86.691546 86.686206h691.185314a86.867776 86.867776 0 0 0 86.686206-86.690211V447.528052a23.070039 23.070039 0 0 0-23.029987-22.90182v-0.064083a23.127447 23.127447 0 0 0-22.963233 23.09674v403.211682a44.943854 44.943854 0 0 1-44.945189 44.945189H172.427181a44.991917 44.991917 0 0 1-44.946524-44.945189V192.714931a44.991917 44.991917 0 0 1 44.945189-44.945189h439.30134a23.035327 23.035327 0 0 0-0.313741-46.003901z m143.119687 658.198363a27.696063 27.696063 0 0 1-7.169335-26.756172l44.471238-162.953513a7.125278 7.125278 0 0 1 1.39782-2.412474l-0.196255-0.317747c0.319082-0.507327 0.193585-1.078738 0.636829-1.524652L782.61503 133.373664a69.302237 69.302237 0 0 1 49.489773-19.879218 84.675588 84.675588 0 0 1 59.209095 25.409085l40.853195 40.913272a84.556767 84.556767 0 0 1 25.410419 59.20776 69.187421 69.187421 0 0 1-19.881887 49.42569l-432.563234 432.50182a6.98643 6.98643 0 0 1-5.073272 2.096063h-0.572746l-161.758623 44.092078a27.693392 27.693392 0 0 1-26.754837-7.168z m58.006195-59.092944l82.715703-22.429205-60.163671-60.159666z m57.175781-126.550112l70.713408 70.00849L808.150947 333.046988l-69.881659-70.838905z m398.577648-398.518905l-42.373841 42.375176 69.881659 70.769481 42.945251-42.945252h-0.254998a16.509497 16.509497 0 0 0 4.700787-11.748631 22.295698 22.295698 0 0 0-6.668683-15.564266l-40.853194-40.913272a20.138222 20.138222 0 0 0-27.380986-1.969231z" fill="#00ADB5" p-id="4487"></path><path d="M330.55975 774.913001a34.530295 34.530295 0 0 1-33.352762-43.465929l44.477914-162.982884a20.66958 20.66958 0 0 1 1.084078-2.678154l0.37115-0.766331 0.375156-1.539338 1.759624-2.294988L777.780735 128.55005a75.729272 75.729272 0 0 1 53.422895-21.895176 91.521836 91.521836 0 0 1 64.981945 27.46643l40.802462 40.866545a90.77019 90.77019 0 0 1 27.405016 63.935249 76.499609 76.499609 0 0 1-21.844443 54.316057L509.950665 725.782362a13.851369 13.851369 0 0 1-9.819452 4.097336l-160.609127 43.849095a34.578357 34.578357 0 0 1-8.962336 1.184208z m25.366362-205.067014a8.240063 8.240063 0 0 1-0.667536 1.315046l-44.86909 163.852015a20.872511 20.872511 0 0 0 20.168929 26.24217 20.867171 20.867171 0 0 0 5.39903-0.711593l162.597048-44.324381h0.914524l433.389643-432.597945a62.720334 62.720334 0 0 0 17.88195-44.508621 77.237904 77.237904 0 0 0-23.363755-54.414853l-40.905262-40.96801a77.415468 77.415468 0 0 0-54.478936-23.406477h-0.00801a62.580151 62.580151 0 0 0-44.57671 17.924672z m3.321659 140.740589l28.796161-105.449304 76.814686 76.816021z m35.767906-79.149726l-16.310571 59.727103 59.817887-16.218451z m101.865971 22.534675l-80.410034-79.619671 321.831051-321.829716 79.474149 80.556892z m-61.050159-79.666399l61.002096 60.398645 301.69283-301.69016-60.289169-61.111572z m416.392845-275.64291l-79.494175-80.504824 47.172089-47.172088a27.346274 27.346274 0 0 1 17.454727-6.456407 27.060568 27.060568 0 0 1 19.759062 8.604537l40.68097 40.737043a28.909643 28.909643 0 0 1 8.664615 20.286415 23.195536 23.195536 0 0 1-6.643317 16.626983z m-60.241106-80.44608l60.273147 61.040813 37.831927-38.058889a9.585815 9.585815 0 0 0 2.714201-6.848918 15.36267 15.36267 0 0 0-4.626023-10.780704l-40.895917-40.958665a13.350717 13.350717 0 0 0-9.922253-4.421757 13.161137 13.161137 0 0 0-8.341528 2.945168z" fill="#00ADB5" p-id="4488"></path><path d="M922.762847 417.731922a29.921627 29.921627 0 0 0-29.860213 29.921627v403.217022a38.116297 38.116297 0 0 1-38.116298 38.117632H172.427181a38.116297 38.116297 0 0 1-38.116297-38.116297V192.714931a38.117632 38.117632 0 0 1 38.116297-38.116297h439.300005a29.858879 29.858879 0 0 0 0-59.653674H167.853226a93.576511 93.576511 0 0 0-93.515098 93.512427v667.049888a93.579181 93.579181 0 0 0 93.515098 93.515098h691.190654a93.576511 93.576511 0 0 0 93.515098-93.513763V447.526717a29.857544 29.857544 0 0 0-29.857544-29.730712" fill="#00ADB5" p-id="4489"></path></svg>