<?xml version="1.0" standalone="no"?><!DOCTYPE svg PUBLIC "-//W3C//DTD SVG 1.1//EN" "http://www.w3.org/Graphics/SVG/1.1/DTD/svg11.dtd">
<svg t="1659079509323" class="icon" viewBox="0 0 1024 1024" version="1.1" xmlns="http://www.w3.org/2000/svg" p-id="4030" xmlns:xlink="http://www.w3.org/1999/xlink" width="200" height="200">
    <defs>
        <style type="text/css">@font-face { font-family: feedback-iconfont; src: url("//at.alicdn.com/t/font_1031158_u69w8yhxdu.woff2?t=1630033759944") format("woff2"), url("//at.alicdn.com/t/font_1031158_u69w8yhxdu.woff?t=1630033759944")
            format("woff"), url("//at.alicdn.com/t/font_1031158_u69w8yhxdu.ttf?t=1630033759944") format("truetype"); }
        </style>
    </defs>
    <path d="M284.520919 257.288675h459.257533c14.936204 0 27.130005-13.490161 27.130005-30.019417s-12.189792-30.020754-27.130005-30.020755H284.520919c-14.936204 0-27.130005 13.490161-27.130005 30.019418 0.004009 16.650874 12.193801 30.020754 27.130005 30.020754z m-2.636822 210.503449h459.265551c14.936204 0 27.130005-13.490161 27.130005-30.019418s-12.188456-30.019418-27.130005-30.019417H281.884097c-14.936204 0-27.130005 13.490161-27.130006 30.019417 0 16.649537 12.188456 30.019418 27.130006 30.019418z m303.317469 180.482695c0-16.526584-12.191129-30.019418-27.130006-30.019418h-272.783516c-14.936204 0-27.130005 13.490161-27.130006 30.019418s12.189792 30.019418 27.130006 30.019417h272.788862c14.934867 0 27.130005-13.490161 27.130005-30.019417z"
           p-id="4031"></path>
    <path d="M284.519583 190.419226h459.258869c18.722377 0 33.953937 16.526584 33.953936 36.848695s-15.23557 36.848695-33.953936 36.848695h-459.258869c-18.722377 0-33.953937-16.526584-33.953937-36.848695s15.230224-36.848695 33.953937-36.848695z m459.258869 60.040172c11.190125 0 20.295382-10.40429 20.295382-23.19014s-9.105257-23.191477-20.295382-23.191477h-459.258869c-11.190125 0-20.295382 10.402954-20.295382 23.19014s9.105257 23.190141 20.295382 23.190141zM281.884097 400.921338h459.265551c18.722377 0 33.953937 16.526584 33.953936 36.848695s-15.23557 36.850031-33.953936 36.850032H281.884097c-18.722377 0-33.953937-16.526584-33.953937-36.848695s15.23156-36.850031 33.953937-36.850032z m459.265551 60.040172c11.190125 0 20.295382-10.402954 20.295382-23.19014s-9.105257-23.190141-20.295382-23.190141H281.884097c-11.190125 0-20.295382 10.402954-20.295383 23.190141s9.105257 23.190141 20.295383 23.19014zM285.294726 611.424787h272.780844c18.722377 0 33.953937 16.526584 33.953936 36.848695s-15.23557 36.848695-33.953936 36.848695H285.294726c-18.722377 0-33.953937-16.526584-33.953937-36.848695s15.224878-36.848695 33.953937-36.848695z m272.787526 60.040172c11.190125 0 20.295382-10.402954 20.295382-23.19014a24.677613 24.677613 0 0 0-6.199807-16.629491 18.953583 18.953583 0 0 0-14.095575-6.55664H285.294726c-11.190125 0-20.295382 10.402954-20.295382 23.19014s9.105257 23.190141 20.295382 23.190141z"
           p-id="4032"></path>
    <path d="M942.732269 697.581933c0-0.113599 0.114935-0.113599 0.114935-0.225861 0.343469-0.451721 0.570666-0.903443 0.915471-1.353827a0.852657 0.852657 0 0 0 0.228534-0.450385c0.342132-0.451721 0.572002-1.015705 0.91547-1.470099 0-0.113599 0.114935-0.225861 0.114935-0.338123l0.682928-1.353827c0.114935-0.113599 0.114935-0.338123 0.228534-0.450385 0.228534-0.563983 0.457067-1.127967 0.682927-1.579688a0.391581 0.391581 0 0 1 0.114935-0.22586c0.114935-0.451721 0.343469-1.015705 0.457067-1.470099 0-0.113599 0.114935-0.338123 0.114935-0.451721 0.114935-0.563983 0.343469-1.127967 0.457067-1.691951v-0.22586a7.52156 7.52156 0 0 0 0.232543-1.583698v-0.451721a8.992995 8.992995 0 0 0 0.114935-1.805548V146.198654c0-76.846074-63.33052-139.36804-141.177598-139.36804H217.640779c-77.847078 0-141.177598 62.519293-141.177599 139.36804v731.602692c0 76.846074 63.33052 139.369377 141.177599 139.369377h396.098077c0.457067 0 0.914134-0.113599 1.365856-0.113599h0.457067c0.343469 0 0.572002-0.113599 0.914134-0.113598a4.972943 4.972943 0 0 0 0.570666-0.113599c0.228534 0 0.457067-0.113599 0.801872-0.113598 0.228534 0 0.457067-0.113599 0.682928-0.113599s0.457067-0.113599 0.682927-0.113598a5.023729 5.023729 0 0 0 0.572002-0.113599c0.228534-0.113599 0.457067-0.113599 0.682928-0.225861 0.228534 0 0.343469-0.113599 0.570666-0.22586s0.572002-0.113599 0.801872-0.225861a0.871368 0.871368 0 0 0 0.457067-0.225861c0.228534-0.113599 0.572002-0.225861 0.801872-0.338122 0.114935 0 0.228534-0.113599 0.343469-0.113599a3.444041 3.444041 0 0 0 0.914134-0.451721c0.114935 0 0.228534-0.113599 0.343468-0.113599 0.343469-0.113599 0.570666-0.338123 0.915471-0.451721a0.400936 0.400936 0 0 0 0.228533-0.113598 6.370874 6.370874 0 0 0 0.914135-0.563984c0.114935 0 0.114935-0.113599 0.228533-0.113598a6.414977 6.414977 0 0 0 0.914134-0.563984c0.114935 0 0.114935-0.113599 0.228534-0.113598 0.343469-0.225861 0.572002-0.451721 0.914134-0.682928 0.114935-0.113599 0.228534-0.113599 0.228534-0.225861 0.228534-0.225861 0.570666-0.451721 0.801872-0.682927a1.583697 1.583697 0 0 1 0.457067-0.338123c0.228534-0.225861 0.457067-0.338123 0.682927-0.563983l1.02907-1.015705 307.400334-308.171468a13.560993 13.560993 0 0 0 1.257603-1.353827l0.343468-0.338123c0.682928-0.682928 1.029069-1.127967 1.486136-1.579688z m-809.797248 180.22075V146.198654c0-46.155757 37.955278-83.621893 84.705758-83.621893H806.928551c46.754488 0 84.707094 37.466136 84.707093 83.621893v507.034407H725.422263c-77.847078 0-141.177598 62.519293-141.177598 139.369377v168.816792H217.640779c-46.754488 0-84.705757-37.466136-84.705758-83.621893z m507.781485 43.446765v-128.648347c0-46.155757 37.955278-83.621893 84.707094-83.621893h126.997827z"
           p-id="4033"></path>
    <path d="M613.73752 1024H217.640779C136.030248 1024 69.633903 958.416219 69.633903 877.801346V146.198654C69.633903 65.583781 136.030248 0 217.640779 0H806.928551c81.611867 0 148.006875 65.583781 148.006875 146.198654V682.232765a16.564004 16.564004 0 0 1-0.249917 3.387909 4.863354 4.863354 0 0 1-0.187103 1.829605v1.014368l-0.429002 0.887405-0.618778 2.17441v0.45974l-0.736386 1.455398-0.97962 2.475112v0.465086l-0.915471 1.202808v0.819246l-1.142667 1.242901v0.561311l-0.114935 0.116271v0.113599l-2.03141 2.00468-1.484799 1.578352a23.309085 23.309085 0 0 1-1.603745 1.694623L637.092044 1013.869683l-0.978284 0.966256v0.641497l-3.247582 2.048783a6.306724 6.306724 0 0 0 0.986303-0.795189l-1.860343 1.502173-1.078518 0.668227-1.229537 1.212163-0.410291 0.008019-0.621451 0.613432-1.336454 0.049449-0.081523 0.033411c-0.255263 0.133645-0.511862 0.267291-0.773807 0.374207l-0.410291 0.164384-0.028066 0.010692a6.076854 6.076854 0 0 1-1.8991 0.837956l-0.066823 0.032075-0.58403 0.133645q-0.308721 0.133645-0.628133 0.241898l-0.046776 0.014701a6.273313 6.273313 0 0 1-0.682928 0.187104l-0.346141 0.093552-1.430005 0.706983-0.446376-0.320748-0.668227 0.038757-0.801872 0.199131-0.563983 0.025393-0.924826 0.267291-0.447712-0.040094zM217.640779 13.658554c-74.079616 0-134.348321 59.456142-134.348321 132.538763v731.604029c0 73.082621 60.274051 132.540099 134.348321 132.5401h395.923002l2.308055-0.288674 1.181425-0.050786 1.050452-0.255262 0.354161-0.200468 0.481123-0.122954 0.992985-0.490478 0.085533 0.061476 0.698965-0.346141 0.240562-0.034748 0.792517-0.360842 1.276313-0.839293h0.013364l1.042434-0.968929h0.24858l0.906116-0.892751 0.62145 0.06415 0.962247-0.759105 0.637488-0.668227L934.809773 696.024965l0.295357-0.387572 0.801872-0.801872v-0.112262l1.256266-1.27765v-0.203141l1.365855-1.790847 0.986303-1.947213 0.283328-0.835283v-1.170734l0.879387-0.91547 0.106916-0.330104a8.455741 8.455741 0 0 1 0.224524-0.87805v-0.682928l0.298029-1.788175-0.021383-536.710356c0-73.082621-60.274051-132.540099-134.348321-132.540099z m373.431827 954.593963h-373.431827c-50.473838 0-91.536371-40.576064-91.536371-90.451171V146.198654c0-49.875107 41.062533-90.451171 91.536371-90.451171H806.928551c50.473838 0 91.536371 40.576064 91.53637 90.451171v513.866357H725.422263c-74.079616 0-134.348321 59.456142-134.348321 132.5401zM217.640779 69.406038c-42.941586 0-77.87648 34.448425-77.87648 76.792616v731.602692c0 42.342855 34.934894 76.792616 77.87648 76.792616h359.773272V792.601101c0-80.614873 66.395008-146.198654 148.006876-146.198654h159.388113V146.198654c0-42.342855-34.934894-76.792616-77.87648-76.792616z m416.245113 868.360639v-145.165576c0-49.875107 41.062533-90.451171 91.536371-90.45117h143.460261z m91.536371-221.955519c-42.941586 0-77.87648 34.448425-77.87648 76.792616v112.128446l188.422565-188.921062z"
           p-id="4034"></path>
</svg>
