<?xml version="1.0" standalone="no"?><!DOCTYPE svg PUBLIC "-//W3C//DTD SVG 1.1//EN"
    "http://www.w3.org/Graphics/SVG/1.1/DTD/svg11.dtd">
<svg t="1588760430423" class="icon" viewBox="0 0 1024 1024" version="1.1" xmlns="http://www.w3.org/2000/svg" p-id="10426" width="200" height="200">
    <path
        d="M507.814 127.998q-154.182 0-263.273 109.091-109.091 109.091-109.091 263.273 0 154.182 109.091 263.273 109.091 109.091 263.273 109.091 154.182 0 263.273-109.091 109.091-109.091 109.091-263.273 0-154.182-109.091-263.273-109.091-109.091-263.273-109.091zM507.814 842.907q-69.818 0-133.091-26.909-63.273-27.636-109.091-73.455-45.818-45.818-73.455-109.091-26.909-63.273-26.909-133.091 0-69.818 26.909-133.091 27.636-63.273 73.455-109.091 45.818-45.818 109.091-73.455 63.273-26.909 133.091-26.909 69.818 0 133.091 26.909 63.273 26.909 109.091 72.727 45.818 45.818 73.455 109.091 26.909 64 26.909 133.818 0 69.818-26.909 133.091-27.636 63.273-73.455 109.091-45.818 45.818-109.091 73.455-63.273 26.909-133.091 26.909zM507.814 378.907q-6.545 0-10.182 5.091-4.364 4.364-4.364 12.364-5.091 98.909-15.273 296.727 0 13.091 8.727 21.818 8.727 8.727 21.091 8.727 12.364 0 21.091-8.727 8.727-8.727 8.727-21.818-5.091-98.909-15.273-296.727 0-8-4.364-12.364-3.636-5.091-10.182-5.091zM507.814 278.543q-13.091 0-21.818 8.727-9.455 8.727-9.455 21.818 0 13.091 9.455 22.545 8.727 8.727 21.818 8.727 13.091 0 21.818-8.727 9.455-9.455 9.455-22.545 0-13.091-9.455-21.818-8.727-8.727-21.818-8.727z"
        p-id="10427" ></path>
</svg>
