<?xml version="1.0" standalone="no"?><!DOCTYPE svg PUBLIC "-//W3C//DTD SVG 1.1//EN" "http://www.w3.org/Graphics/SVG/1.1/DTD/svg11.dtd">
<svg t="1659079473967" class="icon" viewBox="0 0 1024 1024" version="1.1" xmlns="http://www.w3.org/2000/svg" p-id="3132" xmlns:xlink="http://www.w3.org/1999/xlink" width="200" height="200">
    <defs>
        <style type="text/css">@font-face { font-family: feedback-iconfont; src: url("//at.alicdn.com/t/font_1031158_u69w8yhxdu.woff2?t=1630033759944") format("woff2"), url("//at.alicdn.com/t/font_1031158_u69w8yhxdu.woff?t=1630033759944")
            format("woff"), url("//at.alicdn.com/t/font_1031158_u69w8yhxdu.ttf?t=1630033759944") format("truetype"); }
        </style>
    </defs>
    <path d="M511.472647 31.860151c264.886237 0 479.613831 214.732934 479.61383 479.613831S776.352209 991.087812 511.472647 991.087812 31.860151 776.362889 31.860151 511.472647 246.59175 31.860151 511.472647 31.860151z m0 68.517215C284.535823 100.640375 100.6337 284.549173 100.370691 511.484662c0.232302 226.944834 184.151781 410.869653 411.101956 411.096616 226.935489-0.267014 410.838947-184.171807 411.101955-411.101956-0.267014-226.935489-184.171807-410.838947-411.101955-411.101956zM319.015385 484.550926l273.314545-215.555338a34.15514 34.15514 0 1 1 42.27905 53.652527L395.412193 511.277726l239.191447 188.69236a34.15514 34.15514 0 1 1-42.279051 53.653862L319.015385 538.06327a33.893465 33.893465 0 0 1 0-53.508339z"
           p-id="3133"></path>
    <path d="M511.472647 28.036506C778.04508 28.036506 994.908787 244.908224 994.908787 511.472647S778.038404 994.912793 511.472647 994.912793 28.036506 778.05042 28.036506 511.472647 244.908224 28.036506 511.472647 28.036506z m0 959.238341c262.354941 0 475.78885-213.440584 475.78885-475.78885S773.834263 35.683797 511.472647 35.683797 35.683797 249.124381 35.683797 511.472647 249.124381 987.274847 511.472647 987.274847z m0-890.721126c228.526894 0.267014 414.665262 186.393366 414.932276 414.920261C926.139244 739.999541 739.999541 926.139244 511.483327 926.406258h-0.01068c-228.564276-0.228297-414.690628-186.361325-414.920261-414.921596 0.267014-228.537575 186.392031-414.662592 414.918926-414.929606z m0 822.203911c224.320083-0.254999 407.020641-182.967572 407.282315-407.28365C918.497293 287.173924 735.794065 104.462686 511.472647 104.201012 287.173924 104.462686 104.462686 287.173924 104.201012 511.483327 104.425304 735.827442 287.129867 918.529335 511.481992 918.756297z m101.952751-660.869841a37.940068 37.940068 0 0 1 23.553335 67.753555L401.58957 511.275056l235.382487 185.692454a37.97478 37.97478 0 0 1-46.994524 59.660349L316.646967 541.065846a37.717111 37.717111 0 0 1 0-59.521502L589.968188 265.995682a37.717111 37.717111 0 0 1 23.463885-8.107891z m0 499.192658a30.292777 30.292777 0 0 0 18.801815-54.114462L389.236151 511.272386 632.236558 319.642868a30.327489 30.327489 0 0 0-37.546222-47.636693L321.382467 487.554837a30.068485 30.068485 0 0 0 0 47.501851l273.31855 215.559343a30.117883 30.117883 0 0 0 18.724381 6.463082z"
           p-id="3134"></path>
</svg>
