<?xml version="1.0" standalone="no"?><!DOCTYPE svg PUBLIC "-//W3C//DTD SVG 1.1//EN" "http://www.w3.org/Graphics/SVG/1.1/DTD/svg11.dtd">
<svg t="1659079500467" class="icon" viewBox="0 0 1024 1024" version="1.1" xmlns="http://www.w3.org/2000/svg" p-id="3880" xmlns:xlink="http://www.w3.org/1999/xlink" width="200" height="200">
    <defs>
        <style type="text/css">@font-face { font-family: feedback-iconfont; src: url("//at.alicdn.com/t/font_1031158_u69w8yhxdu.woff2?t=1630033759944") format("woff2"), url("//at.alicdn.com/t/font_1031158_u69w8yhxdu.woff?t=1630033759944")
            format("woff"), url("//at.alicdn.com/t/font_1031158_u69w8yhxdu.ttf?t=1630033759944") format("truetype"); }
        </style>
    </defs>
    <path d="M111.127364 925.475713a162.400793 162.400793 0 0 1-45.030634-112.45042V211.018764A160.639833 160.639833 0 0 1 111.111343 98.541643a152.980527 152.980527 0 0 1 109.251588-46.678112h583.2194a152.745554 152.745554 0 0 1 109.250253 46.619369 160.780016 160.780016 0 0 1 45.070686 112.481126l-1.264313 398.378722c-0.267014 21.171567-17.251797 38.3486-37.873314 38.3486a38.419359 38.419359 0 0 1-37.649022-38.522159l1.317715-398.278592a82.416647 82.416647 0 0 0-23.107421-57.777898 78.065648 78.065648 0 0 0-55.736573-23.907129H220.362931a78.235202 78.235202 0 0 0-55.737909 23.904459 82.895937 82.895937 0 0 0-23.110091 57.853997v602.070613a83.49672 83.49672 0 0 0 23.115431 57.808605 76.98691 76.98691 0 0 0 55.732569 23.843045h385.827713a38.968073 38.968073 0 0 1 26.940412 65.841732 38.450065 38.450065 0 0 1-26.907035 11.607113H220.164005a150.694884 150.694884 0 0 1-109.036641-46.659421z"
           p-id="3881"></path>
    <path d="M936.178983 911.91539l-119.798654-123.644996c56.821987-82.484735 42.973288-196.183447-31.92824-261.579265a184.373403 184.373403 0 0 0-255.202963 10.991645c-69.351635 71.603901-73.962973 186.127687-10.660547 263.44703 63.361168 77.319343 173.488563 91.60728 253.39661 32.976272l119.787974 123.642326a30.737356 30.737356 0 0 0 44.40315 0 33.13648 33.13648 0 0 0 0-45.831677z m-273.395984-106.609481c-59.899327 0-111.555922-43.743625-123.205758-104.411953-11.704574-60.723066 19.783093-121.447468 75.176553-145.13164 55.338722-23.685507 119.248605-3.682128 152.495896 47.754179a132.823614 132.823614 0 0 1-15.606989 163.761231 122.875995 122.875995 0 0 1-88.859702 37.973445z m94.244047-453.694749c17.31054 0 31.323452-14.562962 31.323452-32.422216a31.982978 31.982978 0 0 0-31.323452-32.533027l-502.49429-0.165549a31.92824 31.92824 0 0 0-31.37819 32.426221c0 17.915327 14.018253 32.533027 31.323452 32.533028l502.49429 0.164214zM442.968782 545.925507a31.213977 31.213977 0 0 0 27.202086-16.211776 33.302029 33.302029 0 0 0 0-32.367478 31.213977 31.213977 0 0 0-27.202086-16.211776h-188.378618a32.384834 32.384834 0 0 0 0 64.734957l188.378618 0.054738z m-188.378618 129.525987a31.873502 31.873502 0 0 0-31.323452 32.422217c0 17.860589 14.018253 32.367478 31.323452 32.367478h125.630248a31.159239 31.159239 0 0 0 27.422373-16.046227 33.243286 33.243286 0 0 0 0-32.587765 31.159239 31.159239 0 0 0-27.477111-16.046227l-125.568834-0.109476z"
          p-id="3882"></path>
</svg>
