<?xml version="1.0" standalone="no"?><!DOCTYPE svg PUBLIC "-//W3C//DTD SVG 1.1//EN" "http://www.w3.org/Graphics/SVG/1.1/DTD/svg11.dtd">
<svg t="1659079490229" class="icon" viewBox="0 0 1024 1024" version="1.1" xmlns="http://www.w3.org/2000/svg" p-id="3582" xmlns:xlink="http://www.w3.org/1999/xlink" width="200" height="200">
    <defs>
        <style type="text/css">@font-face { font-family: feedback-iconfont; src: url("//at.alicdn.com/t/font_1031158_u69w8yhxdu.woff2?t=1630033759944") format("woff2"), url("//at.alicdn.com/t/font_1031158_u69w8yhxdu.woff?t=1630033759944")
            format("woff"), url("//at.alicdn.com/t/font_1031158_u69w8yhxdu.ttf?t=1630033759944") format("truetype"); }
        </style>
    </defs>
    <path d="M520.775426 937.416595C261.915703 937.416595 52.067797 727.568688 52.067797 468.70763S261.915703 0 520.775426 0s468.708965 209.847906 468.708965 468.708965c-0.770336 258.539306-210.166988 467.937293-468.708965 468.70763z m0-78.143083c215.580704 0 390.344261-174.760887 390.344261-390.34426S736.354795 78.584991 520.775426 78.584991 130.431166 253.345877 130.431166 468.929252c0.767666 215.262957 175.081304 389.576595 390.34426 390.34426z m289.008313 62.522744a37.7091 37.7091 0 0 1 3.90375-54.648491 41.539421 41.539421 0 0 1 54.64849 3.90375l74.239333 89.850326a37.710435 37.710435 0 0 1-3.90375 54.647155 41.539421 41.539421 0 0 1-54.657836-3.893069z"
          p-id="3583"></path>
</svg>
