<?xml version="1.0" standalone="no"?><!DOCTYPE svg PUBLIC "-//W3C//DTD SVG 1.1//EN" "http://www.w3.org/Graphics/SVG/1.1/DTD/svg11.dtd">
<svg t="1659079546559" class="icon" viewBox="0 0 1024 1024" version="1.1" xmlns="http://www.w3.org/2000/svg" p-id="4937" xmlns:xlink="http://www.w3.org/1999/xlink" width="200" height="200">
    <defs>
        <style type="text/css">@font-face { font-family: feedback-iconfont; src: url("//at.alicdn.com/t/font_1031158_u69w8yhxdu.woff2?t=1630033759944") format("woff2"), url("//at.alicdn.com/t/font_1031158_u69w8yhxdu.woff?t=1630033759944")
            format("woff"), url("//at.alicdn.com/t/font_1031158_u69w8yhxdu.ttf?t=1630033759944") format("truetype"); }
        </style>
    </defs>
    <path d="M42.676902 86.644819h938.021382c12.449544 0 22.682868-4.005215 30.698639-11.938211 7.930326-8.01043 11.938211-18.254435 11.938211-30.698639A40.893246 40.893246 0 0 0 980.699619 1.375124H42.676902A40.893246 40.893246 0 0 0 0.040052 44.011974c0 12.449544 4.005215 22.682868 11.938211 30.698639a41.528741 41.528741 0 0 0 30.698639 11.934206z"
          p-id="4938"></path>
    <path d="M552.787776 982.212256V384.810389l270.886049 270.886049a42.63685 42.63685 0 1 0 60.298514-60.295843l-342.136156-342.138827a42.63685 42.63685 0 0 0-60.297179 0L139.408188 595.392584a42.63685 42.63685 0 1 0 60.298513 60.297179l270.88605-270.88605v597.407207a41.100183 41.100183 0 1 0 82.19903 0z"
          p-id="4939"></path>
</svg>
